<?xml version="1.0" standalone="no"?>
<!DOCTYPE svg PUBLIC "-//W3C//DTD SVG 20010904//EN"
 "http://www.w3.org/TR/2001/REC-SVG-20010904/DTD/svg10.dtd">
<svg version="1.0" xmlns="http://www.w3.org/2000/svg"
 width="512.000000pt" height="512.000000pt" viewBox="0 0 512.000000 512.000000"
 preserveAspectRatio="xMidYMid meet">
<metadata>
Created by potrace 1.16, written by Peter Selinger 2001-2019
</metadata>
<g transform="translate(0.000000,512.000000) scale(0.100000,-0.100000)"
fill="#000000" stroke="none">
<path d="M3264 5106 c-79 -27 -128 -59 -219 -147 l-92 -89 -39 16 c-51 21
-186 30 -253 15 -106 -22 -157 -57 -313 -211 -159 -157 -178 -188 -164 -267 7
-34 52 -83 394 -426 l387 -387 -728 -727 -727 -728 -387 387 c-343 342 -392
387 -426 394 -78 14 -110 -5 -262 -159 -149 -151 -191 -212 -215 -316 -16 -67
-8 -202 14 -255 l16 -39 -89 -92 c-132 -137 -166 -218 -159 -378 3 -82 8 -102
41 -171 33 -69 55 -97 216 -260 l180 -182 -169 -169 c-262 -264 -264 -244 68
-577 333 -332 313 -330 577 -68 l169 169 182 -180 c163 -161 191 -183 260
-216 69 -33 89 -38 171 -41 160 -7 241 27 378 159 l92 89 39 -16 c51 -21 186
-30 253 -15 106 22 157 57 313 211 159 157 178 188 164 267 -7 34 -52 83 -394
426 l-387 387 728 727 727 728 387 -387 c343 -342 392 -387 426 -394 79 -14
110 5 267 164 153 155 184 202 210 311 16 67 8 202 -14 255 l-16 39 89 92
c132 137 166 218 159 378 -3 82 -8 102 -41 171 -33 69 -55 97 -216 260 l-180
182 169 169 c262 264 264 244 -68 577 -333 332 -313 330 -577 68 l-169 -169
-182 180 c-164 161 -190 183 -261 216 -73 35 -85 38 -183 40 -66 1 -120 -3
-146 -11z m233 -335 c56 -45 1259 -1252 1291 -1295 26 -34 29 -103 8 -144 -8
-15 -40 -52 -70 -82 l-56 -55 -737 737 -738 738 50 51 c69 70 101 89 157 89
39 0 54 -6 95 -39z m1063 -416 l-100 -100 -102 102 -103 103 100 100 100 100
102 -102 103 -103 -100 -100z m-1736 230 c17 -8 421 -405 898 -883 769 -769
867 -871 873 -905 13 -67 -1 -100 -70 -174 l-64 -68 -953 953 -953 953 64 60
c34 33 73 64 85 69 33 14 85 11 120 -5z m-161 -2127 l-728 -728 -102 102 -103
103 727 727 728 728 102 -102 103 -103 -727 -727z m-1048 -849 l950 -950 -68
-64 c-73 -69 -107 -83 -175 -70 -33 6 -135 104 -914 883 -779 779 -877 881
-883 915 -12 65 1 100 66 171 33 36 64 66 67 66 4 0 435 -428 957 -951z m-425
-424 l735 -735 -55 -56 c-30 -30 -67 -62 -82 -70 -41 -21 -110 -18 -144 8 -43
32 -1250 1235 -1295 1291 -32 41 -39 56 -39 94 0 24 5 54 11 66 12 23 119 137
129 137 3 0 336 -331 740 -735z m-425 -425 l100 -100 -100 -100 -100 -100
-102 102 -103 103 97 97 c54 54 100 98 103 98 3 0 50 -45 105 -100z"/>
</g>
</svg>
