<svg width="372" height="23" viewBox="0 0 372 23" fill="none" xmlns="http://www.w3.org/2000/svg">
<path d="M0 16H2.016L3.168 13.056H9.312L10.448 16H12.496L7.424 3.472H5.104L0 16ZM6.24 5.36L8.624 11.312H3.872L6.24 5.36ZM22.7233 11.696C22.7233 10.56 22.3393 9.536 21.5553 8.64C20.7873 7.744 19.7793 7.296 18.5313 7.296C18.0353 7.296 17.5073 7.424 16.9473 7.68C16.3873 7.92 15.9873 8.272 15.7153 8.72V2.976H13.8113V16H15.6673V14.688C15.9393 15.136 16.3553 15.488 16.9153 15.744C17.4753 16 18.0033 16.128 18.4833 16.128C19.7153 16.128 20.7233 15.696 21.5233 14.816C22.3233 13.936 22.7233 12.896 22.7233 11.696ZM16.3873 9.792C16.8673 9.264 17.4913 9.008 18.2433 9.008C18.9953 9.008 19.6193 9.264 20.0833 9.792C20.5633 10.32 20.8033 10.96 20.8033 11.712C20.8033 12.464 20.5633 13.104 20.0833 13.632C19.6193 14.144 18.9953 14.4 18.2433 14.4C17.4913 14.4 16.8673 14.144 16.3873 13.632C15.9233 13.104 15.6833 12.464 15.6833 11.712C15.6833 10.96 15.9233 10.32 16.3873 9.792ZM28.6379 7.28C27.3899 7.28 26.3179 7.712 25.4379 8.56C24.5579 9.408 24.1099 10.464 24.1099 11.712C24.1099 12.96 24.5419 14.016 25.4219 14.864C26.3019 15.712 27.3739 16.144 28.6219 16.144C29.8859 16.144 30.9419 15.712 31.8059 14.864C32.6859 14 33.1179 12.944 33.1179 11.68C33.1179 10.432 32.6859 9.392 31.8059 8.544C30.9259 7.696 29.8699 7.28 28.6379 7.28ZM26.7659 9.792C27.2459 9.264 27.8699 9.008 28.6219 9.008C29.3739 9.008 29.9979 9.264 30.4619 9.792C30.9419 10.32 31.1819 10.96 31.1819 11.712C31.1819 12.464 30.9419 13.104 30.4779 13.632C30.0139 14.16 29.3899 14.416 28.6379 14.416C27.8859 14.416 27.2619 14.144 26.7819 13.616C26.3019 13.072 26.0619 12.432 26.0619 11.68C26.0619 10.928 26.3019 10.304 26.7659 9.792ZM35.0121 7.456V12.704C35.0121 14.752 36.1481 16.176 38.2121 16.176C39.3001 16.176 40.1641 15.728 40.8201 14.848V16H42.6761V7.456H40.7721V12.208C40.7721 13.504 40.0041 14.368 38.8041 14.368C37.5401 14.368 36.9161 13.52 36.9161 12.24V7.456H35.0121ZM49.8891 9.168V7.456H47.7931V4.816H45.8891V7.456H44.3211V9.168H45.8891V13.248C45.8891 15.104 46.9771 16.096 48.8491 16.096C49.2171 16.096 49.5691 16.032 49.8731 15.92V14.304C49.6651 14.352 49.4571 14.368 49.2651 14.368C48.2891 14.368 47.7931 13.968 47.7931 12.944V9.168H49.8891Z" fill="#303948"/>
<path d="M81.232 16.144C82.528 16.144 83.568 15.792 84.336 15.072C85.104 14.352 85.488 13.504 85.488 12.528C85.488 11.616 85.184 10.864 84.592 10.288C84 9.696 82.928 9.168 81.376 8.704C79.84 8.24 79.056 7.728 79.056 6.784C79.056 5.776 79.936 5.072 81.152 5.072C82.352 5.072 83.2 5.664 83.68 6.832L85.312 5.952C84.72 4.4 83.312 3.296 81.2 3.296C80.032 3.296 79.056 3.648 78.24 4.352C77.44 5.04 77.04 5.888 77.04 6.896C77.04 7.856 77.36 8.624 78 9.184C78.608 9.728 79.584 10.208 80.944 10.64C82.736 11.2 83.456 11.728 83.456 12.64C83.456 13.68 82.544 14.352 81.264 14.352C79.904 14.352 78.816 13.616 78.288 12.272L76.624 13.136C77.328 15.056 79.04 16.144 81.232 16.144ZM95.386 12.288C95.402 12.144 95.418 11.952 95.418 11.696C95.418 10.368 95.05 9.312 94.314 8.496C93.578 7.68 92.554 7.28 91.258 7.28C90.026 7.28 89.002 7.712 88.186 8.576C87.37 9.44 86.954 10.48 86.954 11.712C86.954 12.976 87.386 14.048 88.234 14.896C89.098 15.744 90.17 16.16 91.434 16.16C92.97 16.16 94.362 15.424 95.082 14.096L93.706 13.184C93.242 14.064 92.474 14.512 91.402 14.512C90.746 14.512 90.17 14.304 89.674 13.888C89.178 13.456 88.922 12.928 88.906 12.288H95.386ZM91.258 8.912C92.474 8.912 93.418 9.648 93.482 10.848H89.002C89.178 9.68 90.09 8.912 91.258 8.912ZM102.046 7.424C101.934 7.392 101.79 7.376 101.582 7.376C100.542 7.376 99.7578 7.856 99.2298 8.816V7.456H97.3738V16H99.2778V11.664C99.2778 10.176 100.046 9.328 101.502 9.328C101.71 9.328 101.886 9.344 102.046 9.376V7.424ZM102.647 7.456L106.263 16H108.167L111.735 7.456H109.735L107.223 13.776L104.711 7.456H102.647ZM113.375 5.568C113.871 6.064 114.639 6.064 115.135 5.568C115.631 5.072 115.631 4.304 115.135 3.808C114.639 3.296 113.871 3.296 113.375 3.808C112.879 4.304 112.879 5.072 113.375 5.568ZM115.215 7.456H113.311V16H115.215V7.456ZM121.636 16.144C122.676 16.144 123.524 15.888 124.18 15.376C124.836 14.864 125.3 14.256 125.54 13.568L123.876 12.832C123.476 13.888 122.74 14.416 121.668 14.416C120.948 14.416 120.34 14.16 119.86 13.648C119.38 13.136 119.14 12.48 119.14 11.68C119.14 10.896 119.38 10.256 119.86 9.76C120.356 9.264 120.948 9.008 121.652 9.008C122.74 9.008 123.476 9.536 123.844 10.576L125.476 9.84C124.964 8.32 123.556 7.28 121.636 7.28C120.372 7.28 119.316 7.712 118.468 8.592C117.62 9.472 117.188 10.512 117.188 11.712C117.188 12.976 117.62 14.032 118.468 14.88C119.316 15.728 120.372 16.144 121.636 16.144ZM135.23 12.288C135.246 12.144 135.262 11.952 135.262 11.696C135.262 10.368 134.894 9.312 134.158 8.496C133.422 7.68 132.398 7.28 131.102 7.28C129.87 7.28 128.846 7.712 128.03 8.576C127.214 9.44 126.798 10.48 126.798 11.712C126.798 12.976 127.23 14.048 128.078 14.896C128.942 15.744 130.014 16.16 131.278 16.16C132.814 16.16 134.206 15.424 134.926 14.096L133.55 13.184C133.086 14.064 132.318 14.512 131.246 14.512C130.59 14.512 130.014 14.304 129.518 13.888C129.022 13.456 128.766 12.928 128.75 12.288H135.23ZM131.102 8.912C132.318 8.912 133.262 9.648 133.326 10.848H128.846C129.022 9.68 129.934 8.912 131.102 8.912ZM139.986 16.144C140.946 16.144 141.73 15.904 142.322 15.408C142.914 14.912 143.218 14.272 143.218 13.488C143.218 12.16 142.194 11.232 140.258 10.8C139.154 10.56 138.674 10.272 138.674 9.712C138.674 9.248 139.282 8.88 139.874 8.88C140.69 8.88 141.282 9.264 141.666 10.032L143.138 9.2C142.546 7.92 141.474 7.28 139.938 7.28C139.106 7.28 138.386 7.52 137.762 8.016C137.138 8.512 136.834 9.136 136.834 9.904C136.834 10.512 137.042 11.024 137.442 11.456C137.906 11.952 138.626 12.288 139.57 12.48C140.738 12.72 141.33 13.104 141.33 13.6C141.33 14.176 140.706 14.544 139.986 14.544C139.074 14.544 138.402 14.08 137.938 13.168L136.45 14C137.106 15.424 138.289 16.144 139.986 16.144Z" fill="#303948"/>
<path d="M176.072 16.144C177.656 16.144 179.064 15.632 180.008 14.864C180.952 14.096 181.56 13.248 181.864 12.368L180.072 11.552C179.768 12.368 179.24 13.04 178.504 13.552C177.784 14.048 176.984 14.304 176.12 14.304C174.968 14.304 173.96 13.872 173.112 13.024C172.264 12.16 171.848 11.056 171.848 9.712C171.848 8.352 172.28 7.264 173.128 6.416C173.976 5.568 174.984 5.136 176.12 5.136C178.088 5.136 179.4 6.256 180.024 7.872L181.8 7.056C181.528 6.16 180.92 5.312 180.024 4.56C179.128 3.792 177.736 3.296 176.152 3.296C174.408 3.296 172.92 3.92 171.656 5.152C170.392 6.384 169.768 7.92 169.768 9.776C169.768 11.744 170.536 13.424 171.736 14.496C172.936 15.536 174.472 16.144 176.072 16.144ZM183.624 16H185.528V2.976H183.624V16ZM188.141 5.568C188.637 6.064 189.405 6.064 189.901 5.568C190.397 5.072 190.397 4.304 189.901 3.808C189.405 3.296 188.637 3.296 188.141 3.808C187.645 4.304 187.645 5.072 188.141 5.568ZM189.981 7.456H188.077V16H189.981V7.456ZM200.386 12.288C200.402 12.144 200.418 11.952 200.418 11.696C200.418 10.368 200.05 9.312 199.314 8.496C198.578 7.68 197.554 7.28 196.258 7.28C195.026 7.28 194.002 7.712 193.186 8.576C192.37 9.44 191.954 10.48 191.954 11.712C191.954 12.976 192.386 14.048 193.234 14.896C194.098 15.744 195.17 16.16 196.434 16.16C197.97 16.16 199.362 15.424 200.082 14.096L198.706 13.184C198.242 14.064 197.474 14.512 196.402 14.512C195.746 14.512 195.17 14.304 194.674 13.888C194.178 13.456 193.922 12.928 193.906 12.288H200.386ZM196.258 8.912C197.474 8.912 198.418 9.648 198.482 10.848H194.002C194.178 9.68 195.09 8.912 196.258 8.912ZM210.038 16V10.736C210.038 8.688 208.934 7.28 206.838 7.28C205.75 7.28 204.886 7.728 204.23 8.608V7.456H202.374V16H204.278V11.248C204.278 9.952 205.046 9.088 206.246 9.088C207.51 9.088 208.134 9.936 208.134 11.216V16H210.038ZM217.155 9.168V7.456H215.059V4.816H213.155V7.456H211.587V9.168H213.155V13.248C213.155 15.104 214.243 16.096 216.115 16.096C216.483 16.096 216.835 16.032 217.139 15.92V14.304C216.931 14.352 216.723 14.368 216.531 14.368C215.555 14.368 215.059 13.968 215.059 12.944V9.168H217.155Z" fill="#303948"/>
<path d="M244.6 16H249.544C252.44 16 253.992 14.608 253.992 12.496C253.992 11.888 253.816 11.296 253.448 10.736C253.08 10.176 252.472 9.744 251.608 9.472C252.52 9.072 253.112 8.208 253.288 7.632C253.368 7.328 253.416 7.04 253.416 6.768C253.416 5.744 253.048 4.944 252.312 4.352C251.576 3.76 250.6 3.472 249.384 3.472H244.6V16ZM246.552 5.248H249.128C250.728 5.248 251.448 5.936 251.448 6.976C251.448 8.016 250.632 8.768 249.016 8.768H246.552V5.248ZM246.552 10.496H249.448C251.176 10.496 252.024 11.248 252.024 12.336C252.024 13.472 251.16 14.224 249.576 14.224H246.552V10.496ZM256.03 16H257.934V2.976H256.03V16ZM264.419 7.28C263.171 7.28 262.099 7.712 261.219 8.56C260.339 9.408 259.891 10.464 259.891 11.712C259.891 12.96 260.323 14.016 261.203 14.864C262.083 15.712 263.155 16.144 264.403 16.144C265.667 16.144 266.723 15.712 267.587 14.864C268.467 14 268.899 12.944 268.899 11.68C268.899 10.432 268.467 9.392 267.587 8.544C266.707 7.696 265.651 7.28 264.419 7.28ZM262.547 9.792C263.027 9.264 263.651 9.008 264.403 9.008C265.155 9.008 265.779 9.264 266.243 9.792C266.723 10.32 266.963 10.96 266.963 11.712C266.963 12.464 266.723 13.104 266.259 13.632C265.795 14.16 265.171 14.416 264.419 14.416C263.667 14.416 263.043 14.144 262.563 13.616C262.083 13.072 261.843 12.432 261.843 11.68C261.843 10.928 262.083 10.304 262.547 9.792ZM274.457 16.064C274.905 16.064 275.401 15.952 275.961 15.712C276.521 15.472 276.953 15.12 277.257 14.624V15.968C277.257 17.68 276.153 18.576 274.665 18.576C273.465 18.576 272.569 17.968 271.977 16.768L270.393 17.68C271.177 19.408 272.617 20.272 274.697 20.272C276.041 20.272 277.113 19.872 277.929 19.088C278.745 18.304 279.161 17.232 279.161 15.888V7.456H277.305V8.752C277.001 8.272 276.569 7.92 276.025 7.68C275.481 7.44 274.985 7.312 274.521 7.312C273.257 7.312 272.233 7.76 271.449 8.656C270.681 9.552 270.297 10.56 270.297 11.696C270.297 12.88 270.681 13.904 271.465 14.768C272.249 15.632 273.257 16.064 274.457 16.064ZM277.289 11.664C277.289 12.416 277.049 13.056 276.569 13.584C276.105 14.096 275.497 14.352 274.745 14.352C273.993 14.352 273.385 14.096 272.905 13.584C272.441 13.056 272.201 12.416 272.201 11.664C272.201 10.912 272.441 10.272 272.905 9.776C273.369 9.264 273.993 9.008 274.745 9.008C275.497 9.008 276.121 9.264 276.585 9.776C277.049 10.288 277.289 10.912 277.289 11.664Z" fill="#303948"/>
<path d="M313.072 16.144C314.656 16.144 316.064 15.632 317.008 14.864C317.952 14.096 318.56 13.248 318.864 12.368L317.072 11.552C316.768 12.368 316.24 13.04 315.504 13.552C314.784 14.048 313.984 14.304 313.12 14.304C311.968 14.304 310.96 13.872 310.112 13.024C309.264 12.16 308.848 11.056 308.848 9.712C308.848 8.352 309.28 7.264 310.128 6.416C310.976 5.568 311.984 5.136 313.12 5.136C315.088 5.136 316.4 6.256 317.024 7.872L318.8 7.056C318.528 6.16 317.92 5.312 317.024 4.56C316.128 3.792 314.736 3.296 313.152 3.296C311.408 3.296 309.92 3.92 308.656 5.152C307.392 6.384 306.768 7.92 306.768 9.776C306.768 11.744 307.536 13.424 308.736 14.496C309.936 15.536 311.472 16.144 313.072 16.144ZM324.56 7.28C323.312 7.28 322.24 7.712 321.36 8.56C320.48 9.408 320.032 10.464 320.032 11.712C320.032 12.96 320.464 14.016 321.344 14.864C322.224 15.712 323.296 16.144 324.544 16.144C325.808 16.144 326.864 15.712 327.728 14.864C328.608 14 329.04 12.944 329.04 11.68C329.04 10.432 328.608 9.392 327.728 8.544C326.848 7.696 325.792 7.28 324.56 7.28ZM322.688 9.792C323.168 9.264 323.792 9.008 324.544 9.008C325.296 9.008 325.92 9.264 326.384 9.792C326.864 10.32 327.104 10.96 327.104 11.712C327.104 12.464 326.864 13.104 326.4 13.632C325.936 14.16 325.312 14.416 324.56 14.416C323.808 14.416 323.184 14.144 322.704 13.616C322.224 13.072 321.984 12.432 321.984 11.68C321.984 10.928 322.224 10.304 322.688 9.792ZM338.694 16V10.736C338.694 8.688 337.59 7.28 335.494 7.28C334.406 7.28 333.542 7.728 332.886 8.608V7.456H331.03V16H332.934V11.248C332.934 9.952 333.702 9.088 334.902 9.088C336.166 9.088 336.79 9.936 336.79 11.216V16H338.694ZM345.811 9.168V7.456H343.715V4.816H341.811V7.456H340.243V9.168H341.811V13.248C341.811 15.104 342.899 16.096 344.771 16.096C345.139 16.096 345.491 16.032 345.795 15.92V14.304C345.587 14.352 345.379 14.368 345.187 14.368C344.211 14.368 343.715 13.968 343.715 12.944V9.168H345.811ZM352.691 10.208C352.691 10.688 352.419 10.928 351.891 10.928H350.835C349.331 10.928 347.283 11.552 347.283 13.536V13.632C347.283 14.368 347.555 14.976 348.099 15.44C348.643 15.904 349.331 16.144 350.163 16.144C351.315 16.144 352.147 15.712 352.675 14.832V16H354.547V10.56C354.547 9.968 354.451 9.456 354.259 9.024C353.731 7.856 352.659 7.28 351.059 7.28C349.315 7.28 348.099 8 347.427 9.456L348.883 10.288C349.315 9.376 350.035 8.928 351.011 8.928C352.083 8.928 352.691 9.504 352.691 10.208ZM352.675 12.544C352.675 13.824 351.843 14.624 350.547 14.624C349.731 14.624 349.187 14.16 349.187 13.456C349.187 13.088 349.363 12.8 349.699 12.592C350.051 12.384 350.435 12.272 350.835 12.272H352.675V12.544ZM360.886 16.144C361.926 16.144 362.774 15.888 363.43 15.376C364.086 14.864 364.55 14.256 364.79 13.568L363.126 12.832C362.726 13.888 361.99 14.416 360.918 14.416C360.198 14.416 359.59 14.16 359.11 13.648C358.63 13.136 358.39 12.48 358.39 11.68C358.39 10.896 358.63 10.256 359.11 9.76C359.606 9.264 360.198 9.008 360.902 9.008C361.99 9.008 362.726 9.536 363.094 10.576L364.726 9.84C364.214 8.32 362.806 7.28 360.886 7.28C359.622 7.28 358.566 7.712 357.718 8.592C356.87 9.472 356.438 10.512 356.438 11.712C356.438 12.976 356.87 14.032 357.718 14.88C358.566 15.728 359.622 16.144 360.886 16.144ZM371.28 9.168V7.456H369.184V4.816H367.28V7.456H365.712V9.168H367.28V13.248C367.28 15.104 368.368 16.096 370.24 16.096C370.608 16.096 370.96 16.032 371.264 15.92V14.304C371.056 14.352 370.848 14.368 370.656 14.368C369.68 14.368 369.184 13.968 369.184 12.944V9.168H371.28Z" fill="#303948"/>
</svg>
