<svg width="107" height="16" viewBox="0 0 107 16" fill="none" xmlns="http://www.w3.org/2000/svg">
<path d="M14.28 15H12.34L12.16 13.2C11.8133 13.7867 11.2667 14.2867 10.52 14.7C9.77333 15.1 8.87333 15.3 7.82 15.3C5.88667 15.3 4.24 14.6333 2.88 13.3C1.52 11.9533 0.84 10.1533 0.84 7.9C0.84 6.40667 1.18 5.08667 1.86 3.94C2.55333 2.79333 3.43333 1.94 4.5 1.38C5.56667 0.806666 6.72667 0.519999 7.98 0.519999C9.62 0.519999 10.9933 0.926666 12.1 1.74C13.22 2.55333 13.98 3.58667 14.38 4.84L12.12 5.7C11.8667 4.84667 11.38 4.14 10.66 3.58C9.94 3.02 9.04667 2.74 7.98 2.74C6.71333 2.74 5.61333 3.18667 4.68 4.08C3.74667 4.97333 3.28 6.24667 3.28 7.9C3.28 9.54 3.73333 10.82 4.64 11.74C5.54667 12.6467 6.65333 13.1 7.96 13.1C9.24 13.1 10.2133 12.7667 10.88 12.1C11.56 11.42 11.94 10.6933 12.02 9.92H7.34V7.82H14.28V15ZM19.0083 9.06H23.7883C23.7616 8.44667 23.5416 7.93333 23.1283 7.52C22.7283 7.10667 22.1483 6.9 21.3883 6.9C20.6949 6.9 20.1349 7.12 19.7083 7.56C19.2816 7.98667 19.0483 8.48667 19.0083 9.06ZM24.0483 11.6L26.0083 12.22C25.7283 13.1133 25.2016 13.8533 24.4283 14.44C23.6683 15.0133 22.7283 15.3 21.6083 15.3C20.2216 15.3 19.0416 14.8267 18.0683 13.88C17.1083 12.9333 16.6283 11.6667 16.6283 10.08C16.6283 8.58667 17.0949 7.36 18.0283 6.4C18.9749 5.44 20.0883 4.96 21.3683 4.96C22.8616 4.96 24.0283 5.42 24.8683 6.34C25.7083 7.24667 26.1283 8.47333 26.1283 10.02C26.1283 10.4333 26.1083 10.68 26.0683 10.76H18.9483C18.9749 11.4933 19.2416 12.1 19.7483 12.58C20.2683 13.06 20.8883 13.3 21.6083 13.3C22.8616 13.3 23.6749 12.7333 24.0483 11.6ZM31.6853 2.28V5.26H33.7053V7.32H31.6853V11.84C31.6853 12.2667 31.7853 12.58 31.9853 12.78C32.1853 12.9667 32.4986 13.06 32.9253 13.06C33.192 13.06 33.4586 13.0333 33.7253 12.98V14.9C33.3786 15.0467 32.9053 15.12 32.3053 15.12C31.3986 15.12 30.6853 14.8667 30.1653 14.36C29.6453 13.84 29.3853 13.1267 29.3853 12.22V7.32H27.5853V5.26H28.0853C28.5786 5.26 28.952 5.12 29.2053 4.84C29.4586 4.56 29.5853 4.19333 29.5853 3.74V2.28H31.6853ZM40.9509 12.36L42.9709 11.8C43.0109 12.2667 43.2043 12.66 43.5509 12.98C43.8976 13.3 44.3643 13.46 44.9509 13.46C45.4043 13.46 45.7576 13.3533 46.0109 13.14C46.2776 12.9267 46.4109 12.66 46.4109 12.34C46.4109 11.78 46.0309 11.42 45.2709 11.26L43.8309 10.94C42.9909 10.7533 42.3443 10.4067 41.8909 9.9C41.4376 9.39333 41.2109 8.79333 41.2109 8.1C41.2109 7.24667 41.5576 6.51333 42.2509 5.9C42.9443 5.27333 43.7909 4.96 44.7909 4.96C45.4309 4.96 45.9976 5.05333 46.4909 5.24C46.9843 5.42667 47.3643 5.67333 47.6309 5.98C47.9109 6.27333 48.1243 6.56 48.2709 6.84C48.4176 7.12 48.5109 7.4 48.5509 7.68L46.5909 8.24C46.5376 7.86667 46.3643 7.53333 46.0709 7.24C45.7909 6.93333 45.3643 6.78 44.7909 6.78C44.3909 6.78 44.0576 6.89333 43.7909 7.12C43.5243 7.33333 43.3909 7.59333 43.3909 7.9C43.3909 8.44667 43.7176 8.78667 44.3709 8.92L45.8509 9.22C46.7576 9.42 47.4509 9.78 47.9309 10.3C48.4109 10.82 48.6509 11.4467 48.6509 12.18C48.6509 12.9933 48.3243 13.72 47.6709 14.36C47.0309 14.9867 46.1309 15.3 44.9709 15.3C44.3043 15.3 43.7043 15.2 43.1709 15C42.6509 14.8 42.2376 14.5467 41.9309 14.24C41.6376 13.92 41.4043 13.6067 41.2309 13.3C41.0709 12.98 40.9776 12.6667 40.9509 12.36ZM54.2916 2.28V5.26H56.3116V7.32H54.2916V11.84C54.2916 12.2667 54.3916 12.58 54.5916 12.78C54.7916 12.9667 55.1049 13.06 55.5316 13.06C55.7982 13.06 56.0649 13.0333 56.3316 12.98V14.9C55.9849 15.0467 55.5116 15.12 54.9116 15.12C54.0049 15.12 53.2916 14.8667 52.7716 14.36C52.2516 13.84 51.9916 13.1267 51.9916 12.22V7.32H50.1916V5.26H50.6916C51.1849 5.26 51.5582 5.12 51.8116 4.84C52.0649 4.56 52.1916 4.19333 52.1916 3.74V2.28H54.2916ZM58.5148 12.36C58.5148 11.5333 58.7815 10.8733 59.3148 10.38C59.8615 9.87333 60.5748 9.55333 61.4548 9.42L63.9548 9.04C64.4348 8.97333 64.6748 8.74 64.6748 8.34C64.6748 7.9 64.5215 7.54667 64.2148 7.28C63.9082 7 63.4482 6.86 62.8348 6.86C62.2482 6.86 61.7815 7.02667 61.4348 7.36C61.0882 7.68 60.8882 8.1 60.8348 8.62L58.7148 8.14C58.8082 7.26 59.2282 6.51333 59.9748 5.9C60.7215 5.27333 61.6682 4.96 62.8148 4.96C64.2282 4.96 65.2682 5.3 65.9348 5.98C66.6148 6.66 66.9548 7.53333 66.9548 8.6V13.44C66.9548 14.08 66.9948 14.6 67.0748 15H64.9148C64.8482 14.8 64.8148 14.3867 64.8148 13.76C64.1748 14.7867 63.1748 15.3 61.8148 15.3C60.8282 15.3 60.0282 15.0133 59.4148 14.44C58.8148 13.8533 58.5148 13.16 58.5148 12.36ZM62.2548 13.48C62.9748 13.48 63.5548 13.2867 63.9948 12.9C64.4482 12.5 64.6748 11.8533 64.6748 10.96V10.52L62.1348 10.9C61.2682 11.0467 60.8348 11.4867 60.8348 12.22C60.8348 12.5667 60.9615 12.8667 61.2148 13.12C61.4682 13.36 61.8148 13.48 62.2548 13.48ZM75.8594 5.2V7.56C75.5927 7.52 75.3394 7.5 75.0994 7.5C73.3527 7.5 72.4794 8.45333 72.4794 10.36V15H70.1594V5.26H72.4194V6.82C72.646 6.3 73.0127 5.89333 73.5194 5.6C74.026 5.29333 74.5994 5.14 75.2394 5.14C75.4527 5.14 75.6594 5.16 75.8594 5.2ZM81.5658 2.28V5.26H83.5858V7.32H81.5658V11.84C81.5658 12.2667 81.6658 12.58 81.8658 12.78C82.0658 12.9667 82.3791 13.06 82.8058 13.06C83.0724 13.06 83.3391 13.0333 83.6058 12.98V14.9C83.2591 15.0467 82.7858 15.12 82.1858 15.12C81.2791 15.12 80.5658 14.8667 80.0458 14.36C79.5258 13.84 79.2658 13.1267 79.2658 12.22V7.32H77.4658V5.26H77.9658C78.4591 5.26 78.8324 5.12 79.0858 4.84C79.3391 4.56 79.4658 4.19333 79.4658 3.74V2.28H81.5658ZM87.8919 9.06H92.6719C92.6452 8.44667 92.4252 7.93333 92.0119 7.52C91.6119 7.10667 91.0319 6.9 90.2719 6.9C89.5785 6.9 89.0185 7.12 88.5919 7.56C88.1652 7.98667 87.9319 8.48667 87.8919 9.06ZM92.9319 11.6L94.8919 12.22C94.6119 13.1133 94.0852 13.8533 93.3119 14.44C92.5519 15.0133 91.6119 15.3 90.4919 15.3C89.1052 15.3 87.9252 14.8267 86.9519 13.88C85.9919 12.9333 85.5119 11.6667 85.5119 10.08C85.5119 8.58667 85.9785 7.36 86.9119 6.4C87.8585 5.44 88.9719 4.96 90.2519 4.96C91.7452 4.96 92.9119 5.42 93.7519 6.34C94.5919 7.24667 95.0119 8.47333 95.0119 10.02C95.0119 10.4333 94.9919 10.68 94.9519 10.76H87.8319C87.8585 11.4933 88.1252 12.1 88.6319 12.58C89.1519 13.06 89.7719 13.3 90.4919 13.3C91.7452 13.3 92.5585 12.7333 92.9319 11.6ZM99.1889 10.1C99.1889 11.0333 99.4289 11.7867 99.9089 12.36C100.389 12.92 101.022 13.2 101.809 13.2C102.569 13.2 103.189 12.9133 103.669 12.34C104.149 11.7667 104.389 11.0133 104.389 10.08C104.389 9.16 104.156 8.42667 103.689 7.88C103.222 7.33333 102.602 7.06 101.829 7.06C101.056 7.06 100.422 7.34 99.9289 7.9C99.4356 8.44667 99.1889 9.18 99.1889 10.1ZM106.629 0.519999V13.22C106.629 13.8733 106.662 14.4667 106.729 15H104.509C104.442 14.6267 104.409 14.2067 104.409 13.74C104.169 14.18 103.796 14.54 103.289 14.82C102.782 15.1 102.202 15.24 101.549 15.24C100.162 15.24 99.0356 14.7533 98.1689 13.78C97.3022 12.8067 96.8689 11.58 96.8689 10.1C96.8689 8.67333 97.3022 7.46667 98.1689 6.48C99.0489 5.49333 100.162 5 101.509 5C102.282 5 102.902 5.14 103.369 5.42C103.849 5.7 104.182 6.02667 104.369 6.4V0.519999H106.629Z" fill="white"/>
</svg>
