<?xml version="1.0" encoding="UTF-8"?> <svg xmlns="http://www.w3.org/2000/svg" width="1797" height="183" viewBox="0 0 1797 183" fill="none"> <path d="M1258.41 100.567C1258.41 100.567 1277.31 95.32 1278.59 123.885C1279.86 152.45 1277.04 166.909 1273.68 175.031C1257.7 186.234 1240.07 188.243 1215.5 164.085C1214.11 159.284 1228.41 119.53 1238.27 111.939C1248.14 104.349 1258.41 100.567 1258.41 100.567Z" fill="#FFFDFD" stroke="#040410" stroke-width="3" stroke-miterlimit="10" stroke-linecap="round" stroke-linejoin="round"></path> <path d="M1233.41 75.9501C1232.49 76.1182 1228.84 90.2305 1229.4 93.1638C1229.96 96.0971 1231.06 107.221 1237.58 111.087C1246.09 116.134 1254.86 118.973 1264.13 114.575C1273.4 110.178 1275.46 103.888 1276.05 101.386C1276.64 98.8841 1275.8 90.3064 1273.26 86.5179C1270.73 82.7294 1265.62 69.7153 1262 69.6241C1261.68 69.6161 1259.87 79.0329 1259.87 79.0329C1259.87 79.0329 1252.2 78.1349 1245.97 83.3135C1244.15 84.8189 1235.85 75.5082 1233.41 75.9501Z" fill="#FFFDFD" stroke="#040410" stroke-width="3" stroke-miterlimit="10" stroke-linecap="round" stroke-linejoin="round"></path> <path d="M1257.24 104.293L1258.3 99.8177L1254.62 100.817L1257.24 104.293Z" stroke="#040410" stroke-width="3" stroke-miterlimit="10" stroke-linecap="round" stroke-linejoin="round"></path> <path d="M1251.11 106.247C1251.11 106.247 1256.29 109.035 1256.93 104.43" stroke="#040410" stroke-width="3" stroke-miterlimit="10" stroke-linecap="round" stroke-linejoin="round"></path> <path d="M1258.04 104.141C1258.04 104.141 1261.81 106.657 1264.18 103.798" stroke="#040410" stroke-width="3" stroke-miterlimit="10" stroke-linecap="round" stroke-linejoin="round"></path> <circle cx="1245.47" cy="96.9503" r="2.41201" transform="rotate(-30.7613 1245.47 96.9503)" fill="#040410"></circle> <circle cx="1263.14" cy="92.0494" r="2.41201" transform="rotate(-30.7613 1263.14 92.0494)" fill="#040410"></circle> <path d="M172.445 106.287C181.473 101.656 191.901 98.8806 209.137 100.083C222.414 101.011 233.492 96.6619 246.899 96.6861C256.746 96.7023 264.565 98.7434 273.692 100.502C305.095 106.553 340.157 103.027 371.77 100.139C394.305 98.0819 410.402 86.9159 428.327 77.1699C447.323 66.843 465.439 63.3173 487.704 60.1789C513.898 56.4838 521.806 60.5662 546.371 69.5619C552.779 71.9096 559.398 71.2723 566.416 71.2481C573.145 71.2239 578.813 73.0069 585.272 72.9342C619.334 72.5793 657.266 74.1686 690.778 78.4043C707.384 80.5019 726.17 84.9473 735.358 69.9491C738.297 65.1568 740.717 61.1067 747.185 58.8638C751.994 57.1938 756.663 57.7989 761.752 57.8876C783.507 58.2749 800.033 44.0996 822.758 44.0996C827.997 44.0996 833.286 44.269 838.535 44.1157C860.779 43.4622 891.372 29.3918 912.288 38.3552C917.637 40.6465 923.135 42.1068 928.644 44.0593C934.733 46.2134 938.372 49.142 943.601 51.9416C948.61 54.6363 953.299 56.1853 958.807 58.049C965.136 60.187 971.374 63.5755 978.243 64.5356C1011.97 69.2553 1042.89 76.6697 1077.14 77.9847C1091.52 78.5334 1105.44 84.3826 1119.58 86.5044C1125.01 87.3193 1129.42 88.1503 1134.45 89.9333C1137.43 90.9902 1139.07 91.5146 1142.29 91.6195C1146.73 91.7728 1151.48 91.1031 1155.9 91.5227C1167.95 92.6602 1181.78 96.4441 1192.16 101.729C1206.49 109.022 1216.8 120.494 1230.05 128.893C1235.74 132.5 1240.42 135.59 1247.21 137.84C1257.58 141.285 1268.4 144.351 1279.23 141.181C1291.64 137.558 1304.17 139.01 1316.68 141.608C1338.08 146.054 1362.76 124.722 1383.99 122.019C1387.37 121.592 1390 122.044 1393.38 121.277C1397.27 120.398 1401.11 119.276 1404.97 118.252C1413.59 115.952 1423.58 117.017 1432.69 117.017C1443.89 117.017 1451.39 117.348 1461.7 120.833C1490.85 130.676 1522.34 127.094 1552.65 131.902C1562.04 133.395 1571.98 132.863 1581.44 134.347C1591.98 136.009 1602.33 135.735 1613.12 135.678C1630.66 135.581 1648.14 139.277 1665.56 139.107C1671.25 139.051 1676.93 139.083 1682.63 139.051C1696.31 138.97 1708.39 143.883 1721.84 144.198C1731.56 144.424 1741.21 146.11 1750.74 147.74C1761.18 149.531 1775.5 159.93 1786.5 176.5C1807 203.5 1785.13 212.122 1776 215.801C1581.44 218.423 1190.91 218.423 970.705 218.423C733.177 218.423 295.5 218.423 24.109 215.389C0.293505 222.836 -4.41816 198.533 4.61346 181.48C9.94225 171.395 19.83 173.968 29.1279 168.87C38.4258 163.771 36.4662 158.769 42.125 152.556C53.5024 140.051 75.5774 135.686 93.9332 135.686C110.08 135.686 122.427 133.694 136.504 127.384C152.73 120.115 161.578 111.846 172.435 106.279L172.445 106.287Z" fill="#0B8762"></path> <path d="M742.5 147L735.706 133.01L717.397 139.385L726.101 125.974L707 121L726.101 116.026L717.397 102.615L735.706 108.99L742.5 95L749.292 108.99L767.603 102.615L758.899 116.026L778 121L758.899 125.974L767.603 139.385L749.292 133.01L742.5 147Z" fill="white" stroke="#040410" stroke-width="3" stroke-miterlimit="10" stroke-linecap="round" stroke-linejoin="round"></path> <path d="M736.257 122.094C733.702 121.288 730.671 119.781 728.042 119.781C720.036 119.781 706.59 123.706 702 132.5V139.969L716.586 144.594L742.237 151L769.396 144.594H787V131.922C785.393 130.075 781.511 129.858 780.965 126.719C780.435 123.674 776.876 119.552 774.538 118.432C769.529 116.033 763.405 124.406 758.108 124.406C749.769 124.406 744.359 124.647 736.257 122.094Z" fill="#0B8762"></path> <path d="M679 94.0168C679.052 93.5996 682.303 101.07 683.8 102.817" stroke="#167256" stroke-width="5" stroke-linecap="round"></path> <path d="M707 183.2C710.612 181.23 713.5 178.657 716.6 176" stroke="#167256" stroke-width="5" stroke-linecap="round"></path> <path d="M767 72.7998C769.817 73.0815 771.275 76.2791 772.6 78.3998" stroke="#167256" stroke-width="5" stroke-linecap="round"></path> <path d="M806.199 110.4C808.378 113.035 810.487 115.712 812.599 118.4" stroke="#167256" stroke-width="5" stroke-linecap="round"></path> <path d="M819.801 89.6C821.327 87.5152 822.837 85.7641 824.601 84" stroke="#167256" stroke-width="5" stroke-linecap="round"></path> <path d="M807.801 72C810.823 70.9927 813.119 69.7063 815.801 68" stroke="#167256" stroke-width="5" stroke-linecap="round"></path> <path d="M841.398 58.3999C843.708 60.0873 844.642 61.3509 845.398 63.9999" stroke="#167256" stroke-width="5" stroke-linecap="round"></path> <path d="M854.199 101.6C856.97 102.524 858.834 105.882 860.599 108" stroke="#167256" stroke-width="5" stroke-linecap="round"></path> <path d="M846.199 125.6C847.804 126.865 848.905 128.09 850.199 129.6" stroke="#167256" stroke-width="5" stroke-linecap="round"></path> <path d="M835 104C836.768 101.525 838.781 99.2257 840.6 96.7998" stroke="#167256" stroke-width="5" stroke-linecap="round"></path> <path d="M867.801 75.9998C870.241 75.0016 872.609 73.9036 875.001 72.7998" stroke="#167256" stroke-width="5" stroke-linecap="round"></path> <path d="M866.199 56L866.999 64" stroke="#167256" stroke-width="5" stroke-linecap="round"></path> <path d="M877.398 66.3999C879.159 66.8267 880.718 67.013 882.198 67.9999" stroke="#167256" stroke-width="5" stroke-linecap="round"></path> <path d="M886.199 50.3999C887.667 52.3191 888.872 54.1363 890.999 55.1999" stroke="#167256" stroke-width="5" stroke-linecap="round"></path> <path d="M896.602 41.6001C898.501 41.7118 899.3 42.6985 900.602 44.0001" stroke="#167256" stroke-width="5" stroke-linecap="round"></path> <path d="M919 68.0001C922.352 67.4505 925.364 66.5518 928.6 65.6001" stroke="#167256" stroke-width="5" stroke-linecap="round"></path> <path d="M919.801 51.2002C922.71 49.7672 925.627 48.4746 928.601 47.2002" stroke="#167256" stroke-width="5" stroke-linecap="round"></path> <path d="M942.199 57.6002C943.405 55.2813 944.72 53.3135 946.199 51.2002" stroke="#167256" stroke-width="5" stroke-linecap="round"></path> <path d="M963 65.6002C964.295 63.9818 964.6 61.2184 964.6 59.2002" stroke="#167256" stroke-width="5" stroke-linecap="round"></path> <path d="M982.199 60C982.199 63.8812 984.864 65.0651 987.799 67.2" stroke="#167256" stroke-width="5" stroke-linecap="round"></path> <path d="M1003 66.3999C1006.08 69.4799 1008.92 72.7342 1011.8 75.9999" stroke="#167256" stroke-width="5" stroke-linecap="round"></path> <path d="M957.401 58.3999C956.094 60.6213 954.321 61.5999 951.801 61.5999" stroke="#167256" stroke-width="5" stroke-linecap="round"></path> <path d="M914.199 36.7998C909.837 37.6177 906.294 39.1976 902.199 40.7998" stroke="#167256" stroke-width="5" stroke-linecap="round"></path> <path d="M845.399 40.7998C842.601 42.5672 840.418 45.5791 838.199 47.9998" stroke="#167256" stroke-width="5" stroke-linecap="round"></path> <path d="M810.998 44.7998C810.659 48.5306 807.344 52.1734 805.398 55.1998" stroke="#167256" stroke-width="5" stroke-linecap="round"></path> <path d="M758.2 61.6001C754.988 62.0589 764.569 62.9064 767.8 63.2001" stroke="#167256" stroke-width="5" stroke-linecap="round"></path> <path d="M781.398 55.2002C784.735 55.2002 786.523 55.8031 789.398 57.6002" stroke="#167256" stroke-width="5" stroke-linecap="round"></path> <path d="M710.199 87.2002C715.01 89.2046 719.51 89.552 724.599 90.4002" stroke="#167256" stroke-width="5" stroke-linecap="round"></path> <path d="M674.199 81.6001C676.303 83.372 678.89 83.1636 681.399 84.0001" stroke="#167256" stroke-width="5" stroke-linecap="round"></path> <path d="M648.602 87.2C649.96 84.8119 651.286 82.4113 652.602 80" stroke="#167256" stroke-width="5" stroke-linecap="round"></path> <path d="M627.801 84.8002C625.097 81.6283 622.45 78.4171 619.801 75.2002" stroke="#167256" stroke-width="5" stroke-linecap="round"></path> <path d="M598.201 81.6002C594.746 79.447 591.274 77.323 587.801 75.2002" stroke="#167256" stroke-width="5" stroke-linecap="round"></path> <path d="M529.4 82.4002C525.786 82.4002 524.796 82.343 523 79.2002" stroke="#167256" stroke-width="5" stroke-linecap="round"></path> <path d="M543 85.6C545.073 83.5686 547.157 81.7945 549.4 80" stroke="#167256" stroke-width="5" stroke-linecap="round"></path> <path d="M559 104.8C560.712 103.023 562.261 101.124 563.8 99.2002" stroke="#167256" stroke-width="5" stroke-linecap="round"></path> <path d="M602.199 113.6L606.199 108" stroke="#167256" stroke-width="5" stroke-linecap="round"></path> <path d="M570.999 87.1998C569.479 84.9641 567.88 82.9007 566.199 80.7998" stroke="#167256" stroke-width="5" stroke-linecap="round"></path> <path d="M503.799 72.0001C501.999 69.788 500.115 67.7072 498.199 65.6001" stroke="#167256" stroke-width="5" stroke-linecap="round"></path> <path d="M474.202 76C470.759 75.0888 467.783 73.5907 464.602 72" stroke="#167256" stroke-width="5" stroke-linecap="round"></path> <path d="M461.398 95.9998C458.712 94.6974 456.179 93.7266 453.398 92.7998" stroke="#167256" stroke-width="5" stroke-linecap="round"></path> <path d="M424.601 105.6C422.975 104.291 421.384 102.957 419.801 101.6" stroke="#167256" stroke-width="5" stroke-linecap="round"></path> <path d="M440.6 81.6C439.708 79.6482 439.41 78.049 439 76" stroke="#167256" stroke-width="5" stroke-linecap="round"></path> <path d="M421.401 92.0001L415.801 89.6001" stroke="#167256" stroke-width="5" stroke-linecap="round"></path> <path d="M451 119.2H465.4" stroke="#167256" stroke-width="5" stroke-linecap="round"></path> <path d="M491 104C493.451 103.282 495.809 102.47 498.2 101.6" stroke="#167256" stroke-width="5" stroke-linecap="round"></path> <path d="M483.801 96.0002C483.963 94.376 484.833 92.7151 485.401 91.2002" stroke="#167256" stroke-width="5" stroke-linecap="round"></path> <path d="M480.602 66.3999C480.602 64.7623 480.693 63.8168 481.402 62.3999" stroke="#167256" stroke-width="5" stroke-linecap="round"></path> <path d="M380.598 108.8C379.618 106.84 378.71 104.949 377.398 103.2" stroke="#167256" stroke-width="5" stroke-linecap="round"></path> <path d="M391 96V104" stroke="#167256" stroke-width="5" stroke-linecap="round"></path> <path d="M397.398 140C398.429 136.259 399.84 133.107 401.398 129.6" stroke="#167256" stroke-width="5" stroke-linecap="round"></path> <path d="M363 144.8C361.794 142.481 360.479 140.513 359 138.4" stroke="#167256" stroke-width="5" stroke-linecap="round"></path> <path d="M350.199 125.6C348.93 123.925 347.685 122.285 346.199 120.8" stroke="#167256" stroke-width="5" stroke-linecap="round"></path> <path d="M327.798 122.4C325.418 119.543 323.445 116.67 321.398 113.6" stroke="#167256" stroke-width="5" stroke-linecap="round"></path> <path d="M330.198 113.6C329.687 111.427 329.398 109.424 329.398 107.2" stroke="#167256" stroke-width="5" stroke-linecap="round"></path> <path d="M356.601 105.6C355.684 103.613 357.257 101.652 358.201 100" stroke="#167256" stroke-width="5" stroke-linecap="round"></path> <path d="M371 123.2V131.2" stroke="#167256" stroke-width="5" stroke-linecap="round"></path> <path d="M380.602 157.6V161.6" stroke="#167256" stroke-width="5" stroke-linecap="round"></path> <path d="M401.402 116.8C400.967 115.442 400.602 114.223 400.602 112.8" stroke="#167256" stroke-width="5" stroke-linecap="round"></path> <path d="M423 142.4L425.4 135.2" stroke="#167256" stroke-width="5" stroke-linecap="round"></path> <path d="M454.199 156C455.637 154.171 456.916 152.325 458.199 150.4" stroke="#167256" stroke-width="5" stroke-linecap="round"></path> <path d="M491 167.2C492.888 165.62 494.749 164.02 496.6 162.4" stroke="#167256" stroke-width="5" stroke-linecap="round"></path> <path d="M492.602 140C493.993 137.891 495.304 135.763 496.602 133.6" stroke="#167256" stroke-width="5" stroke-linecap="round"></path> <path d="M476.6 143.2C475.805 140.217 475.404 137.428 475 134.4" stroke="#167256" stroke-width="5" stroke-linecap="round"></path> <path d="M470.202 116C469.566 113.061 469.057 110.16 468.602 107.2" stroke="#167256" stroke-width="5" stroke-linecap="round"></path> <path d="M566.199 145.6C569.631 143.632 572.64 141.517 575.799 139.2" stroke="#167256" stroke-width="5" stroke-linecap="round"></path> <path d="M539 122.4L547 118.4" stroke="#167256" stroke-width="5" stroke-linecap="round"></path> <path d="M526.199 70.3999C527.493 69.106 528.464 67.9594 529.399 66.3999" stroke="#167256" stroke-width="5" stroke-linecap="round"></path> <path d="M511.801 60.7998V67.1998" stroke="#167256" stroke-width="5" stroke-linecap="round"></path> <path d="M740.602 140C744.107 138.117 746.462 136.119 749.402 133.6" stroke="#167256" stroke-width="5" stroke-linecap="round"></path> <path d="M694.199 86.3998C694.406 84.3276 696.281 82.4764 697.399 80.7998" stroke="#167256" stroke-width="5" stroke-linecap="round"></path> <path d="M634.999 77.5999C634.137 77.4767 640.416 74.7686 641.399 74.3999" stroke="#167256" stroke-width="5" stroke-linecap="round"></path> <path d="M671.801 74.3999H678.201" stroke="#167256" stroke-width="5" stroke-linecap="round"></path> <path d="M723 79.1998C721.298 77.2544 733.032 76.7998 734.2 76.7998" stroke="#167256" stroke-width="5" stroke-linecap="round"></path> <path d="M742.201 58.3999C742.268 58.4095 740.037 66.176 739.801 67.1999" stroke="#167256" stroke-width="5" stroke-linecap="round"></path> <path d="M864.602 43.9999C868.53 40.0714 874.374 37.4258 879.002 34.3999" stroke="#167256" stroke-width="5" stroke-linecap="round"></path> <path d="M507 96.7998C509.776 97.7504 512.361 98.8004 515 99.9998" stroke="#167256" stroke-width="5" stroke-linecap="round"></path> <path d="M520.602 136.8C522.925 137.298 524.016 136.596 526.202 136" stroke="#167256" stroke-width="5" stroke-linecap="round"></path> <path d="M523.801 160C526.187 162.68 528.587 165.345 531.001 168" stroke="#167256" stroke-width="5" stroke-linecap="round"></path> <path d="M545.398 135.2C547.846 135.632 550.195 136.199 552.598 136.8" stroke="#167256" stroke-width="5" stroke-linecap="round"></path> <path d="M569.398 124C571.9 124.388 574.185 124.942 576.598 125.6" stroke="#167256" stroke-width="5" stroke-linecap="round"></path> <path d="M599 153.6L604.6 148.8" stroke="#167256" stroke-width="5" stroke-linecap="round"></path> <path d="M613.398 176C616.162 174.881 618.331 173.889 620.598 172" stroke="#167256" stroke-width="5" stroke-linecap="round"></path> <path d="M642.199 135.2C645.915 135.843 648.661 136.439 651.799 138.4" stroke="#167256" stroke-width="5" stroke-linecap="round"></path> <path d="M647 115.2C648.216 115.638 649.121 116.153 650.2 116.8" stroke="#167256" stroke-width="5" stroke-linecap="round"></path> <path d="M619.799 121.6C619.69 125.847 618.984 129.482 618.199 133.6" stroke="#167256" stroke-width="5" stroke-linecap="round"></path> <path d="M618.199 103.2V107.2" stroke="#167256" stroke-width="5" stroke-linecap="round"></path> <path d="M603.801 88C605.875 88.5927 607.497 89.4481 609.401 90.4" stroke="#167256" stroke-width="5" stroke-linecap="round"></path> <path d="M581.398 102.4C584.125 103.102 586.74 103.914 589.398 104.8" stroke="#167256" stroke-width="5" stroke-linecap="round"></path> <path d="M703.801 160C706.065 158.253 708.18 156.421 710.201 154.4" stroke="#167256" stroke-width="5" stroke-linecap="round"></path> <path d="M687.801 132C689.91 130.608 692.038 129.298 694.201 128" stroke="#167256" stroke-width="5" stroke-linecap="round"></path> <path d="M679.801 114.4C682.813 112.464 685.133 111.778 688.601 111.2" stroke="#167256" stroke-width="5" stroke-linecap="round"></path> <path d="M684.602 160H689.402" stroke="#167256" stroke-width="5" stroke-linecap="round"></path> <path d="M664.602 161.6C666.201 162.536 667.731 163.284 669.402 164" stroke="#167256" stroke-width="5" stroke-linecap="round"></path> <path d="M646.199 168C648.823 168.317 650.869 168.23 653.399 168" stroke="#167256" stroke-width="5" stroke-linecap="round"></path> <path d="M665.398 121.6C666.927 123.444 668.435 124.857 670.198 126.4" stroke="#167256" stroke-width="5" stroke-linecap="round"></path> <path d="M750.199 160C752.337 160.407 754.421 160.8 756.599 160.8" stroke="#167256" stroke-width="5" stroke-linecap="round"></path> <path d="M768.602 132.8C771.542 132.449 774.454 132.211 777.402 132" stroke="#167256" stroke-width="5" stroke-linecap="round"></path> <path d="M772.602 109.6C776.732 106.045 780.953 103.094 785.402 100" stroke="#167256" stroke-width="5" stroke-linecap="round"></path> <path d="M792.602 92.7998C793.383 94.4502 794.069 96.046 795.002 97.5998" stroke="#167256" stroke-width="5" stroke-linecap="round"></path> <path d="M781.402 84.7998C779.833 86.3304 778.33 87.5655 776.602 88.7998" stroke="#167256" stroke-width="5" stroke-linecap="round"></path> <path d="M786.199 116.8C789.572 116.993 792.076 118.405 794.999 120" stroke="#167256" stroke-width="5" stroke-linecap="round"></path> <path d="M841.398 141.6C843.539 141.943 845.648 142.185 847.798 142.4" stroke="#167256" stroke-width="5" stroke-linecap="round"></path> <path d="M887 162.4C890.267 162.008 893.391 161.442 896.6 160.8" stroke="#167256" stroke-width="5" stroke-linecap="round"></path> <path d="M904.602 135.2C906.399 132.717 908.267 130.365 910.202 128" stroke="#167256" stroke-width="5" stroke-linecap="round"></path> <path d="M908.602 100.8L911.802 103.2" stroke="#167256" stroke-width="5" stroke-linecap="round"></path> <path d="M892.602 90.3999L897.402 95.9999" stroke="#167256" stroke-width="5" stroke-linecap="round"></path> <path d="M886.199 119.2C888.077 118.842 889.908 118.61 891.799 118.4" stroke="#167256" stroke-width="5" stroke-linecap="round"></path> <path d="M856.602 155.2C859.524 154.046 862.434 152.989 865.402 152" stroke="#167256" stroke-width="5" stroke-linecap="round"></path> <path d="M795.801 172.8C798.841 171.888 801.668 170.773 804.601 169.6" stroke="#167256" stroke-width="5" stroke-linecap="round"></path> <path d="M775.801 169.6L781.401 168.8" stroke="#167256" stroke-width="5" stroke-linecap="round"></path> <path d="M800.602 147.2C805.178 146.253 809.672 145.132 814.202 144" stroke="#167256" stroke-width="5" stroke-linecap="round"></path> <path d="M933.398 125.6C935.84 125.658 938.204 126.001 940.598 126.4" stroke="#167256" stroke-width="5" stroke-linecap="round"></path> <path d="M936.602 89.6001C939.537 89.9174 942.461 90.1739 945.402 90.4001" stroke="#167256" stroke-width="5" stroke-linecap="round"></path> <path d="M1020.6 79.2002C1023.74 79.2926 1025.85 80.2265 1028.6 81.6002" stroke="#167256" stroke-width="5" stroke-linecap="round"></path> <path d="M1035 72.7998C1038.76 74.0744 1042.47 75.4442 1046.2 76.7998" stroke="#167256" stroke-width="5" stroke-linecap="round"></path> <path d="M1043 102.4C1045.52 103.454 1047.8 104.264 1049.4 106.4" stroke="#167256" stroke-width="5" stroke-linecap="round"></path> <path d="M1013.4 114.4C1017.96 113.558 1021.86 111.961 1026.2 110.4" stroke="#167256" stroke-width="5" stroke-linecap="round"></path> <path d="M976.602 98.4001C980.559 96.5052 984.496 95.0931 988.602 93.6001" stroke="#167256" stroke-width="5" stroke-linecap="round"></path> <path d="M953.398 93.6002C957.128 92.7769 960.862 91.9869 964.598 91.2002" stroke="#167256" stroke-width="5" stroke-linecap="round"></path> <path d="M957.398 135.2C961.675 134.24 965.888 133.48 970.198 132.8" stroke="#167256" stroke-width="5" stroke-linecap="round"></path> <path d="M953.398 157.6H958.998" stroke="#167256" stroke-width="5" stroke-linecap="round"></path> <path d="M928.602 167.2C933.176 167.2 937.646 166.796 942.202 166.4" stroke="#167256" stroke-width="5" stroke-linecap="round"></path> <path d="M998.199 166.4C1002.31 165.53 1006.19 164.402 1010.2 163.2" stroke="#167256" stroke-width="5" stroke-linecap="round"></path> <path d="M1004.6 141.6C1008.41 141.224 1012.06 140.661 1015.8 140" stroke="#167256" stroke-width="5" stroke-linecap="round"></path> <path d="M915.801 149.6H926.201" stroke="#167256" stroke-width="5" stroke-linecap="round"></path> <path d="M939.801 111.2C943.271 111.535 946.725 111.783 950.201 112" stroke="#167256" stroke-width="5" stroke-linecap="round"></path> <path d="M1063.8 155.2C1069.39 155.919 1074.99 156.319 1080.6 156.8" stroke="#167256" stroke-width="5" stroke-linecap="round"></path> <path d="M1079 132C1081.67 132.324 1084.32 132.577 1087 132.8" stroke="#167256" stroke-width="5" stroke-linecap="round"></path> <path d="M1076.6 117.6L1083 116" stroke="#167256" stroke-width="5" stroke-linecap="round"></path> <path d="M1073.4 93.6001L1080.6 94.4001" stroke="#167256" stroke-width="5" stroke-linecap="round"></path> <path d="M1057.4 134.4L1062.2 139.2" stroke="#167256" stroke-width="5" stroke-linecap="round"></path> <path d="M1108.6 101.6C1110.72 104.015 1112.85 106.413 1115 108.8" stroke="#167256" stroke-width="5" stroke-linecap="round"></path> <path d="M1091.8 85.6001C1094.49 86.6201 1097.15 87.6939 1099.8 88.8001" stroke="#167256" stroke-width="5" stroke-linecap="round"></path> <path d="M1112.6 84.8C1117.93 82.014 1119.45 83.782 1123.8 87.2" stroke="#167256" stroke-width="5" stroke-linecap="round"></path> <path d="M1146.2 101.6C1149.95 105.762 1152.67 110.15 1155 115.2" stroke="#167256" stroke-width="5" stroke-linecap="round"></path> <path d="M1161.4 127.2H1163.8" stroke="#167256" stroke-width="5" stroke-linecap="round"></path> <path d="M1165.4 98.3999C1168.42 100.595 1170.22 102.826 1172.6 105.6" stroke="#167256" stroke-width="5" stroke-linecap="round"></path> <path d="M1072.6 81.5999C1076.05 80.4639 1079.52 79.4249 1083 78.3999" stroke="#167256" stroke-width="5" stroke-linecap="round"></path> <path d="M567.001 72.8C565.184 71.3466 561.959 72 559.801 72" stroke="#167256" stroke-width="5" stroke-linecap="round"></path> <path d="M421.399 79.2002C418.817 79.7534 416.551 80.4242 414.199 81.6002" stroke="#167256" stroke-width="5" stroke-linecap="round"></path> <path d="M360.601 125.6C357.608 126.824 354.692 128.155 351.801 129.6" stroke="#167256" stroke-width="5" stroke-linecap="round"></path> <path d="M317.398 150.4L326.998 153.6" stroke="#167256" stroke-width="5" stroke-linecap="round"></path> <path d="M319 164C323.479 165.974 327.879 166.82 332.6 168" stroke="#167256" stroke-width="5" stroke-linecap="round"></path> <path d="M360.602 168L367.802 169.6" stroke="#167256" stroke-width="5" stroke-linecap="round"></path> <path d="M404.602 158.4V166.4" stroke="#167256" stroke-width="5" stroke-linecap="round"></path> <path d="M308.602 131.2C309.106 134.179 309.944 136.451 311.002 139.2" stroke="#167256" stroke-width="5" stroke-linecap="round"></path> <path d="M334.199 145.6C337.645 147.096 341.071 148.355 344.599 149.6" stroke="#167256" stroke-width="5" stroke-linecap="round"></path> <path d="M295.801 165.6C298.704 167.024 301.64 168.305 304.601 169.6" stroke="#167256" stroke-width="5" stroke-linecap="round"></path> <path d="M1115 165.6C1118.32 165.502 1119.91 164.694 1122.2 162.4" stroke="#167256" stroke-width="5" stroke-linecap="round"></path> <path d="M1118.2 139.2L1120.6 143.2" stroke="#167256" stroke-width="5" stroke-linecap="round"></path> <path d="M1099.8 136C1099.87 137.903 1100.23 139.742 1100.6 141.6" stroke="#167256" stroke-width="5" stroke-linecap="round"></path> <path d="M1089.4 173.6C1091.96 175.259 1093.74 175.387 1096.6 176" stroke="#167256" stroke-width="5" stroke-linecap="round"></path> <path d="M1059.8 172L1062.2 176.8" stroke="#167256" stroke-width="5" stroke-linecap="round"></path> <path d="M1018.2 179.2C1020.37 180.242 1022.35 180.924 1024.6 181.6" stroke="#167256" stroke-width="5" stroke-linecap="round"></path> <path d="M976.602 140.8C979.7 143.072 982.509 145.493 985.402 148" stroke="#167256" stroke-width="5" stroke-linecap="round"></path> <path d="M994.199 111.2L998.199 115.2" stroke="#167256" stroke-width="5" stroke-linecap="round"></path> <path d="M1167 170.4C1169.42 171.403 1171.71 172.12 1174.2 172.8" stroke="#167256" stroke-width="5" stroke-linecap="round"></path> <path d="M1183.8 152.8C1185.68 153.158 1187.51 153.39 1189.4 153.6" stroke="#167256" stroke-width="5" stroke-linecap="round"></path> <path d="M1192.6 132.8C1193.02 134.279 1193.4 134.937 1194.2 136" stroke="#167256" stroke-width="5" stroke-linecap="round"></path> <path d="M1194.2 114.4C1194.71 116.971 1195.48 118.562 1196.6 120.8" stroke="#167256" stroke-width="5" stroke-linecap="round"></path> <path d="M1142.2 150.4C1147.53 150.518 1152.87 150.987 1158.2 151.2" stroke="#167256" stroke-width="5" stroke-linecap="round"></path> <path d="M1212.6 160C1214.49 161.814 1215.68 162.779 1218.2 163.2" stroke="#167256" stroke-width="5" stroke-linecap="round"></path> <path d="M1218.2 139.2C1220.87 138.876 1223.52 138.623 1226.2 138.4" stroke="#167256" stroke-width="5" stroke-linecap="round"></path> <path d="M1421.2 158.6C1425.87 162.996 1431.08 161.8 1437.2 161.8" stroke="#167256" stroke-width="5" stroke-linecap="round"></path> <path d="M1418 141C1420.48 143.575 1422.35 146.133 1424.4 149" stroke="#167256" stroke-width="5" stroke-linecap="round"></path> <path d="M1459.6 142.6C1460.42 145.616 1461.45 147.895 1462.8 150.6" stroke="#167256" stroke-width="5" stroke-linecap="round"></path> <path d="M1490 166.6L1496.4 161.8" stroke="#167256" stroke-width="5" stroke-linecap="round"></path> <path d="M1514 153.8C1516.23 152.752 1517.78 152.632 1518.8 150.6" stroke="#167256" stroke-width="5" stroke-linecap="round"></path> <path d="M1506 141C1509.24 141 1511.32 140.81 1514 142.6" stroke="#167256" stroke-width="5" stroke-linecap="round"></path> <path d="M1526.8 128.2C1526.8 131.999 1530.57 133.572 1533.2 136.2" stroke="#167256" stroke-width="5" stroke-linecap="round"></path> <path d="M1573.2 153.8C1577.54 158.143 1581.9 161.992 1586 166.6" stroke="#167256" stroke-width="5" stroke-linecap="round"></path> <path d="M1546 157C1548.44 156.865 1550.13 156.156 1552.4 155.4" stroke="#167256" stroke-width="5" stroke-linecap="round"></path> <path d="M1565.2 142.6L1570 144.2" stroke="#167256" stroke-width="5" stroke-linecap="round"></path> <path d="M1603.6 153.8C1606.5 156.526 1609.19 158.586 1611.6 161.8" stroke="#167256" stroke-width="5" stroke-linecap="round"></path> <path d="M1630.8 173H1640.4" stroke="#167256" stroke-width="5" stroke-linecap="round"></path> <path d="M1664.4 160.2C1667.4 160.377 1668.74 161.338 1670.8 163.4" stroke="#167256" stroke-width="5" stroke-linecap="round"></path> <path d="M1646.8 145.8C1645.63 145.995 1650.82 149.947 1651.6 150.6" stroke="#167256" stroke-width="5" stroke-linecap="round"></path> <path d="M1634 141C1632.11 141.237 1632.4 142.607 1632.4 144.2" stroke="#167256" stroke-width="5" stroke-linecap="round"></path> <path d="M1597.2 133C1597.2 138.443 1598.61 141.568 1602 145.8" stroke="#167256" stroke-width="5" stroke-linecap="round"></path> <path d="M1683.6 158.6C1686.89 162.619 1690.39 165.554 1694.8 168.2" stroke="#167256" stroke-width="5" stroke-linecap="round"></path> <path d="M1728.4 168.2L1733.2 169.8" stroke="#167256" stroke-width="5" stroke-linecap="round"></path> <path d="M1728.4 168.2C1733 163.208 1738.62 154.05 1746 157" stroke="#167256" stroke-width="5" stroke-linecap="round"></path> <path d="M1366.8 158.6C1373.1 158.6 1377.05 159.5 1382.8 161.8" stroke="#167256" stroke-width="5" stroke-linecap="round"></path> <path d="M1323.6 165C1326.7 168.008 1329.79 170.442 1333.2 173" stroke="#167256" stroke-width="5" stroke-linecap="round"></path> <path d="M1302.8 171.4L1306 166.6" stroke="#167256" stroke-width="5" stroke-linecap="round"></path> <path d="M1283.6 163.4C1285.67 160.664 1287.81 158.031 1290 155.4" stroke="#167256" stroke-width="5" stroke-linecap="round"></path> <path d="M1250 153.8L1254.8 155.4" stroke="#167256" stroke-width="5" stroke-linecap="round"></path> <path d="M1230.8 165C1236.68 166.271 1242.48 167.289 1248.4 168.2" stroke="#167256" stroke-width="5" stroke-linecap="round"></path> <path d="M1270.8 157L1269.2 165" stroke="#167256" stroke-width="5" stroke-linecap="round"></path> <path d="M1256.4 142.6L1262.8 145.8" stroke="#167256" stroke-width="5" stroke-linecap="round"></path> <path d="M1350.8 147.4C1351.14 150.292 1352.14 150.341 1354 152.2" stroke="#167256" stroke-width="5" stroke-linecap="round"></path> <path d="M1355.6 168.2L1363.6 169.8" stroke="#167256" stroke-width="5" stroke-linecap="round"></path> <path d="M1309.2 150.6C1314.62 152.194 1318.23 152.2 1323.6 152.2" stroke="#167256" stroke-width="5" stroke-linecap="round"></path> <path d="M1386 134.6C1388.69 133.298 1391.22 132.327 1394 131.4" stroke="#167256" stroke-width="5" stroke-linecap="round"></path> <path d="M1358.8 136.2C1361.65 133.348 1362.96 132.168 1366.8 131.4" stroke="#167256" stroke-width="5" stroke-linecap="round"></path> <path d="M1416.4 121.8C1419.64 120.764 1422.84 119.654 1426 118.6" stroke="#167256" stroke-width="5" stroke-linecap="round"></path> <path d="M1461.2 126.6H1482" stroke="#167256" stroke-width="5" stroke-linecap="round"></path> <path d="M1493.2 145.8C1493.31 149.656 1493.87 153.283 1494.8 157" stroke="#167256" stroke-width="5" stroke-linecap="round"></path> <path d="M1662.8 155.4C1666.68 155.305 1670.34 155.02 1674 153.8" stroke="#167256" stroke-width="5" stroke-linecap="round"></path> <path d="M1610 155.4C1614.36 153.947 1618.58 152.408 1622.8 150.6" stroke="#167256" stroke-width="5" stroke-linecap="round"></path> <path d="M1533.2 176.2C1537.43 175.874 1539.38 175.031 1541.2 171.4" stroke="#167256" stroke-width="5" stroke-linecap="round"></path> <path d="M1438.8 149C1438.14 149.925 1449.39 142.936 1451.6 141" stroke="#167256" stroke-width="5" stroke-linecap="round"></path> <path d="M1701.2 155.4C1704.45 152.782 1707.63 150.114 1710.8 147.4" stroke="#167256" stroke-width="5" stroke-linecap="round"></path> <path d="M1746 179.4H1758.8" stroke="#167256" stroke-width="5" stroke-linecap="round"></path> <path d="M1758.8 161.8L1770 165" stroke="#167256" stroke-width="5" stroke-linecap="round"></path> <path d="M1789.2 177.8C1791.68 178.729 1792.39 179.394 1794 181" stroke="#167256" stroke-width="5" stroke-linecap="round"></path> <path d="M197.199 155.4C205.469 158.262 212.373 158.6 221.199 158.6" stroke="#167256" stroke-width="5" stroke-linecap="round"></path> <path d="M253.199 139.4C256.627 140.821 259.628 142.388 262.799 144.2" stroke="#167256" stroke-width="5" stroke-linecap="round"></path> <path d="M235.602 134.6C236.993 136.774 237.875 138.685 238.802 141" stroke="#167256" stroke-width="5" stroke-linecap="round"></path> <path d="M211.602 139.4C212.728 141.019 214.129 142.264 214.802 142.6" stroke="#167256" stroke-width="5" stroke-linecap="round"></path> <path d="M166.801 139.4C168.103 142.086 169.074 144.62 170.001 147.4" stroke="#167256" stroke-width="5" stroke-linecap="round"></path> <path d="M184.398 128.2H197.198" stroke="#167256" stroke-width="5" stroke-linecap="round"></path> <path d="M206.801 118.6C208.389 117.188 209.539 117 211.601 117" stroke="#167256" stroke-width="5" stroke-linecap="round"></path> <path d="M238.801 113.8C242.43 116.468 245.646 119.111 250.001 120.2" stroke="#167256" stroke-width="5" stroke-linecap="round"></path> <path d="M278.801 126.6L286.801 134.6" stroke="#167256" stroke-width="5" stroke-linecap="round"></path> <path d="M293.199 153.8C293.889 155.956 294.36 158.006 294.799 160.2" stroke="#167256" stroke-width="5" stroke-linecap="round"></path> <path d="M246.801 163.4C250.475 173.197 258.481 167.507 266.001 165" stroke="#167256" stroke-width="5" stroke-linecap="round"></path> <path d="M283.602 123.4C288.558 126.232 292.321 128.2 298.002 128.2" stroke="#167256" stroke-width="5" stroke-linecap="round"></path> <path d="M240.398 117C244.202 118.449 247.694 119.332 251.598 120.2" stroke="#167256" stroke-width="5" stroke-linecap="round"></path> <path d="M203.602 115.4H208.402" stroke="#167256" stroke-width="5" stroke-linecap="round"></path> <path d="M163.602 118.6H170.002" stroke="#167256" stroke-width="5" stroke-linecap="round"></path> <path d="M136.398 125C143.86 125.207 151.345 126.134 158.798 126.6" stroke="#167256" stroke-width="5" stroke-linecap="round"></path> <path d="M102.801 137.8C106.053 140.418 109.234 143.086 112.401 145.8" stroke="#167256" stroke-width="5" stroke-linecap="round"></path> <path d="M75.6016 145.8C76.7072 149.977 78.188 153.054 77.2015 157" stroke="#167256" stroke-width="5" stroke-linecap="round"></path> <path d="M51.6008 149C51.4578 153.72 51.4512 157.05 46.8008 158.6" stroke="#167256" stroke-width="5" stroke-linecap="round"></path> <path d="M35.6016 163.4C37.3237 169.662 38.8677 171.4 45.2015 171.4" stroke="#167256" stroke-width="5" stroke-linecap="round"></path> <path d="M86.8008 168.2C90.5894 172.831 94.1664 175.471 99.6008 177.8" stroke="#167256" stroke-width="5" stroke-linecap="round"></path> <path d="M117.199 169.8C123.107 170.874 128.807 171.4 134.799 171.4" stroke="#167256" stroke-width="5" stroke-linecap="round"></path> <path d="M99.6016 160.2L102.802 163.4" stroke="#167256" stroke-width="5" stroke-linecap="round"></path> <path d="M128.398 174.6C133.781 175.602 138.934 176.2 144.398 176.2" stroke="#167256" stroke-width="5" stroke-linecap="round"></path> <path d="M173.199 169.8L174.799 171.4" stroke="#167256" stroke-width="5" stroke-linecap="round"></path> <path d="M141.199 153.8C149.534 158.535 155.759 159.61 165.199 160.2" stroke="#167256" stroke-width="5" stroke-linecap="round"></path> <path d="M192.398 173L198.798 174.6" stroke="#167256" stroke-width="5" stroke-linecap="round"></path> <path d="M230.801 141L237.201 144.2" stroke="#167256" stroke-width="5" stroke-linecap="round"></path> <path d="M267.602 107.4C270.128 109.926 272.232 112.677 275.602 113.8" stroke="#167256" stroke-width="5" stroke-linecap="round"></path> <path d="M258 123.4C263.056 128.456 268.054 132.236 274 136.2" stroke="#167256" stroke-width="5" stroke-linecap="round"></path> <path d="M437.2 157C433.956 157 444.506 157.694 446.8 155.4" stroke="#167256" stroke-width="5" stroke-linecap="round"></path> <path d="M430.801 93C434.057 96.831 436.472 98.5444 440.401 101" stroke="#167256" stroke-width="5" stroke-linecap="round"></path> <path d="M272.398 109C277.181 113.457 281.248 115.612 286.798 118.6" stroke="#167256" stroke-width="5" stroke-linecap="round"></path> <path d="M219.602 118.6C229.179 120.948 238.756 122.991 248.402 125" stroke="#167256" stroke-width="5" stroke-linecap="round"></path> <path d="M562 168.2C566.2 173.072 570.476 177.844 574.8 182.6" stroke="#167256" stroke-width="5" stroke-linecap="round"></path> <path d="M661.199 153.8L672.399 158.6" stroke="#167256" stroke-width="5" stroke-linecap="round"></path> <path d="M710.801 144.2H712.401" stroke="#167256" stroke-width="5" stroke-linecap="round"></path> <path d="M704.398 125C707.575 127.077 710.353 128.889 713.998 129.8" stroke="#167256" stroke-width="5" stroke-linecap="round"></path> <path d="M733.199 168.2C739.708 170.292 745.614 170.916 752.399 171.4" stroke="#167256" stroke-width="5" stroke-linecap="round"></path> <path d="M832.398 134.6C835.36 138.82 837.934 142.964 840.398 147.4" stroke="#167256" stroke-width="5" stroke-linecap="round"></path> <path d="M835.602 109C838.682 112.08 841.599 114.598 845.202 117" stroke="#167256" stroke-width="5" stroke-linecap="round"></path> <path d="M854.801 155.4L866.001 158.6" stroke="#167256" stroke-width="5" stroke-linecap="round"></path> <path d="M934.801 99.3999C937.467 101.483 939.216 103.319 941.201 105.8" stroke="#167256" stroke-width="5" stroke-linecap="round"></path> <path d="M891.602 70.6001C896.606 73.74 900.626 75.2081 906.002 77.0001" stroke="#167256" stroke-width="5" stroke-linecap="round"></path> <path d="M890 115.4C891.421 118.828 892.988 121.829 894.8 125" stroke="#167256" stroke-width="5" stroke-linecap="round"></path> <path d="M950.801 139.4L965.201 142.6" stroke="#167256" stroke-width="5" stroke-linecap="round"></path> <path d="M1139.6 125C1149.7 128.325 1159.85 131.449 1170 134.6" stroke="#167256" stroke-width="5" stroke-linecap="round"></path> <path d="M1194 142.6C1199.28 148.521 1204.62 154.372 1210 160.2" stroke="#167256" stroke-width="5" stroke-linecap="round"></path> <path d="M1013.2 134.6L1019.6 141" stroke="#167256" stroke-width="5" stroke-linecap="round"></path> <path d="M1027.6 129.8V141" stroke="#167256" stroke-width="5" stroke-linecap="round"></path> <path d="M998.799 94.6001C998.708 100.707 998.052 106.231 997.199 112.2" stroke="#167256" stroke-width="5" stroke-linecap="round"></path> <path d="M894.801 141C891.793 144.099 889.359 147.189 886.801 150.6" stroke="#167256" stroke-width="5" stroke-linecap="round"></path> <path d="M814.799 134.6L805.199 141" stroke="#167256" stroke-width="5" stroke-linecap="round"></path> <path d="M754 134.6C753.795 143.423 752.657 145.422 746 150.6" stroke="#167256" stroke-width="5" stroke-linecap="round"></path> <path d="M730 120C732.586 123.134 735.017 125.515 738 128" stroke="#167256" stroke-width="5" stroke-linecap="round"></path> <path d="M719 140C721.044 141.93 723.09 143.26 725.4 144.8" stroke="#167256" stroke-width="5" stroke-linecap="round"></path> <path d="M995.602 152.2C998.8 154.073 1001.86 155.568 1005.2 157" stroke="#167256" stroke-width="5" stroke-linecap="round"></path> <path d="M1048.4 134.6C1051.07 136.544 1053.53 137.968 1056.4 139.4" stroke="#167256" stroke-width="5" stroke-linecap="round"></path> <path d="M1038.8 113.8C1042.97 116.182 1046.72 118.6 1051.6 118.6" stroke="#167256" stroke-width="5" stroke-linecap="round"></path> <path d="M1027.6 93C1033.08 96.0592 1037.37 97.8 1043.6 97.8" stroke="#167256" stroke-width="5" stroke-linecap="round"></path> <path d="M976.398 99.3999L989.198 104.2" stroke="#167256" stroke-width="5" stroke-linecap="round"></path> <path d="M1197.2 139.4L1210 144.2" stroke="#167256" stroke-width="5" stroke-linecap="round"></path> <path d="M1179.6 117C1185.42 119.866 1191.25 122.451 1197.2 125" stroke="#167256" stroke-width="5" stroke-linecap="round"></path> <path d="M1170 158.6C1179.05 159.835 1188.12 160.791 1197.2 161.8" stroke="#167256" stroke-width="5" stroke-linecap="round"></path> <path d="M1365.2 152.2C1373.19 154.372 1381.19 156.493 1389.2 158.6" stroke="#167256" stroke-width="5" stroke-linecap="round"></path> <path d="M1422.8 150.6C1429.14 154.065 1435.48 157.157 1442 160.2" stroke="#167256" stroke-width="5" stroke-linecap="round"></path> <path d="M1462.8 150.6L1474 160.2" stroke="#167256" stroke-width="5" stroke-linecap="round"></path> <path d="M1443.6 171.4L1432.4 176.2" stroke="#167256" stroke-width="5" stroke-linecap="round"></path> <path d="M1414.8 134.6V144.2" stroke="#167256" stroke-width="5" stroke-linecap="round"></path> <path d="M1512.4 150.6C1513.11 154.356 1513.58 158.018 1514 161.8" stroke="#167256" stroke-width="5" stroke-linecap="round"></path> <path d="M1549.2 158.6V163.4" stroke="#167256" stroke-width="5" stroke-linecap="round"></path> <path d="M1590.8 169.8C1595.04 172.181 1599.21 174.248 1603.6 176.2" stroke="#167256" stroke-width="5" stroke-linecap="round"></path> <path d="M1597.2 153.8C1594.93 158.213 1592.68 161.515 1589.2 165" stroke="#167256" stroke-width="5" stroke-linecap="round"></path> <path d="M1674 165V166.6" stroke="#167256" stroke-width="5" stroke-linecap="round"></path> <path d="M430.801 149C435.872 150.326 440.427 151.89 445.201 153.8" stroke="#167256" stroke-width="5" stroke-linecap="round"></path> <path d="M424.398 181C428.662 179.803 432.893 178.757 437.198 177.8" stroke="#167256" stroke-width="5" stroke-linecap="round"></path> <path d="M483.602 177.8L491.602 176.2" stroke="#167256" stroke-width="5" stroke-linecap="round"></path> <path d="M608.398 173C612.576 168.509 614.035 165.399 616.398 160.2" stroke="#167256" stroke-width="5" stroke-linecap="round"></path> <path d="M566.801 121.8L581.201 125" stroke="#167256" stroke-width="5" stroke-linecap="round"></path> <path d="M541.199 89.7998C544.197 93.9502 546.629 98.1943 549.199 102.6" stroke="#167256" stroke-width="5" stroke-linecap="round"></path> <path d="M498 80.2002C498.694 86.6744 502.776 92.273 506 97.8002" stroke="#167256" stroke-width="5" stroke-linecap="round"></path> <path d="M526.801 94.6001C530.459 94.8927 530.668 95.7736 533.201 97.8" stroke="#167256" stroke-width="5" stroke-linecap="round"></path> <path d="M325.199 139.4C331.251 141.821 336.542 142.948 342.799 144.2" stroke="#167256" stroke-width="5" stroke-linecap="round"></path> <path d="M181.199 141L189.199 157" stroke="#167256" stroke-width="5" stroke-linecap="round"></path> <path d="M125.199 157C129.441 159.381 133.608 161.448 137.999 163.4" stroke="#167256" stroke-width="5" stroke-linecap="round"></path> <path d="M88.4019 168.2C86.464 172.906 91.7306 174.729 94.8018 177.8" stroke="#167256" stroke-width="5" stroke-linecap="round"></path> <path d="M304.398 179.4C310.857 180.413 315.802 181.17 321.998 179.4" stroke="#167256" stroke-width="5" stroke-linecap="round"></path> <path d="M328.398 155.4C336.626 152.552 344.417 149.22 352.398 145.8" stroke="#167256" stroke-width="5" stroke-linecap="round"></path> <path d="M373.199 131.4C379.157 129.266 384.704 127.906 390.799 126.6" stroke="#167256" stroke-width="5" stroke-linecap="round"></path> <path d="M405.199 141L414.799 150.6" stroke="#167256" stroke-width="5" stroke-linecap="round"></path> <path d="M442 157L448.4 160.2" stroke="#167256" stroke-width="5" stroke-linecap="round"></path> <path d="M445.199 128.2C450.509 131.57 455.508 133.761 461.199 136.2" stroke="#167256" stroke-width="5" stroke-linecap="round"></path> <path d="M440.398 113.8H461.198" stroke="#167256" stroke-width="5" stroke-linecap="round"></path> <path d="M566.801 137.8L578.001 145.8" stroke="#167256" stroke-width="5" stroke-linecap="round"></path> <path d="M618 152.2L632.4 155.4" stroke="#167256" stroke-width="5" stroke-linecap="round"></path> <path d="M670.801 131.4C675.809 133.326 680.457 135.428 685.201 137.8" stroke="#167256" stroke-width="5" stroke-linecap="round"></path> <path d="M702.801 136.2L706.001 139.4" stroke="#167256" stroke-width="5" stroke-linecap="round"></path> <path d="M704.398 109C708.133 108.39 711.851 107.868 715.598 107.4" stroke="#167256" stroke-width="5" stroke-linecap="round"></path> <path d="M749 96.2C754.409 92.5591 759.696 88.7884 765 85" stroke="#167256" stroke-width="5" stroke-linecap="round"></path> <path d="M786 136.2C790.766 137.454 794.247 137.8 798.8 137.8" stroke="#167256" stroke-width="5" stroke-linecap="round"></path> <path d="M840.398 160.2C845.34 161.047 847.119 159.944 851.598 158.6" stroke="#167256" stroke-width="5" stroke-linecap="round"></path> <path d="M816.398 168.2C821.708 165.872 826.984 163.769 832.398 161.8" stroke="#167256" stroke-width="5" stroke-linecap="round"></path> <path d="M866 93.0002L877.2 88.2002" stroke="#167256" stroke-width="5" stroke-linecap="round"></path> <path d="M1070.8 147.4C1074.02 147.302 1075.94 146.753 1078.8 145.8" stroke="#167256" stroke-width="5" stroke-linecap="round"></path> <path d="M1035.6 157L1045.2 152.2" stroke="#167256" stroke-width="5" stroke-linecap="round"></path> <path d="M958.801 168.2C967.857 166.789 973.225 163.978 981.201 160.2" stroke="#167256" stroke-width="5" stroke-linecap="round"></path> <path d="M923.602 150.6C927.304 148.396 931.038 146.291 934.802 144.2" stroke="#167256" stroke-width="5" stroke-linecap="round"></path> <path d="M914 118.6C919.135 117.889 923.577 116.847 928.4 115.4" stroke="#167256" stroke-width="5" stroke-linecap="round"></path> <path d="M1107.6 129.8L1117.2 120.2" stroke="#167256" stroke-width="5" stroke-linecap="round"></path> <path d="M870.801 120.2L883.601 121.8" stroke="#167256" stroke-width="5" stroke-linecap="round"></path> <path d="M805.199 126.6L817.999 133" stroke="#167256" stroke-width="5" stroke-linecap="round"></path> <path d="M824.398 96.2002L835.598 99.4002" stroke="#167256" stroke-width="5" stroke-linecap="round"></path> <path d="M1083.6 153.8L1094.8 147.4" stroke="#167256" stroke-width="5" stroke-linecap="round"></path> <path d="M1126.8 161.8L1141.2 153.8" stroke="#167256" stroke-width="5" stroke-linecap="round"></path> <path d="M1238.8 173C1241.29 168.783 1243.76 165.349 1246.8 161.8" stroke="#167256" stroke-width="5" stroke-linecap="round"></path> <path d="M1139.6 168.2L1149.2 160.2" stroke="#167256" stroke-width="5" stroke-linecap="round"></path> <path d="M1454.8 165L1462.8 161.8" stroke="#167256" stroke-width="5" stroke-linecap="round"></path> <path d="M979.602 121.8V128.2" stroke="#167256" stroke-width="5" stroke-linecap="round"></path> <path d="M973.199 136.2C975.878 136.468 977.532 137.85 979.599 139.4" stroke="#167256" stroke-width="5" stroke-linecap="round"></path> <path d="M976.398 99.3999L982.798 105.8" stroke="#167256" stroke-width="5" stroke-linecap="round"></path> <path d="M957.199 80.2002C959.373 81.5914 961.284 82.4741 963.599 83.4002" stroke="#167256" stroke-width="5" stroke-linecap="round"></path> <path d="M566.801 150.6C569.588 153.28 572.748 155.521 574.801 158.6" stroke="#167256" stroke-width="5" stroke-linecap="round"></path> <path d="M528.398 160.2C530.224 163.021 532.016 163.41 534.798 165" stroke="#167256" stroke-width="5" stroke-linecap="round"></path> <path d="M502.801 139.4C503.965 144.703 503.844 147.928 509.201 149" stroke="#167256" stroke-width="5" stroke-linecap="round"></path> <path d="M502.801 123.4C503.603 126.252 504.735 128.867 506.001 131.4" stroke="#167256" stroke-width="5" stroke-linecap="round"></path> <path d="M235.602 157C239.141 158.49 243.12 159.148 246.802 160.2" stroke="#167256" stroke-width="5" stroke-linecap="round"></path> <path d="M213.199 160.2C218.273 161.933 218.71 161.369 222.799 160.2" stroke="#167256" stroke-width="5" stroke-linecap="round"></path> <path d="M181.201 121.8C179.8 122.267 183.751 127.226 184.401 128.2" stroke="#167256" stroke-width="5" stroke-linecap="round"></path> <path d="M115.602 150.6C119.084 153.133 124.304 152.2 128.402 152.2" stroke="#167256" stroke-width="5" stroke-linecap="round"></path> <path d="M93.1992 152.2C94.2482 156.163 94.687 159.592 97.9992 161.8" stroke="#167256" stroke-width="5" stroke-linecap="round"></path> <path d="M1027.6 168.2C1031.85 166.481 1035.98 164.505 1040.4 163.4" stroke="#167256" stroke-width="5" stroke-linecap="round"></path> <path d="M1062.8 129.8L1077.2 120.2" stroke="#167256" stroke-width="5" stroke-linecap="round"></path> <path d="M1070.8 105.8C1074.37 105.018 1077.16 103.989 1080.4 102.6" stroke="#167256" stroke-width="5" stroke-linecap="round"></path> <path d="M957.199 86.6001L985.999 91.4001" stroke="#167256" stroke-width="5" stroke-linecap="round"></path> <path d="M1406.8 155.4C1412.38 155.4 1417.32 154.897 1422.8 153.8" stroke="#167256" stroke-width="5" stroke-linecap="round"></path> <path d="M1398.8 144.2C1403.6 139.77 1404.86 139.171 1410 142.6" stroke="#167256" stroke-width="5" stroke-linecap="round"></path> <path d="M1406.8 158.6C1422.28 157.139 1437.74 155.445 1453.2 153.8" stroke="#167256" stroke-width="5" stroke-linecap="round"></path> <path d="M1589.2 161.8C1591.42 162.077 1592.61 163.609 1594 165" stroke="#167256" stroke-width="5" stroke-linecap="round"></path> <path d="M1651.6 169.8V173" stroke="#167256" stroke-width="5" stroke-linecap="round"></path> <path d="M1702.8 169.8C1704.23 173.23 1704.89 172.973 1707.6 174.6" stroke="#167256" stroke-width="5" stroke-linecap="round"></path> <path d="M1744.4 173C1747.06 173.111 1747.46 173.442 1749.2 174.6" stroke="#167256" stroke-width="5" stroke-linecap="round"></path> <path d="M1766.8 165C1772.68 163.531 1772.83 168.399 1774.8 173" stroke="#167256" stroke-width="5" stroke-linecap="round"></path> <path d="M1627.6 141L1629.2 145.8" stroke="#167256" stroke-width="5" stroke-linecap="round"></path> <path d="M1552.4 141C1557.25 143.007 1561.82 144.441 1566.8 145.8" stroke="#167256" stroke-width="5" stroke-linecap="round"></path> <path d="M1520.4 145.8L1522 152.2" stroke="#167256" stroke-width="5" stroke-linecap="round"></path> <path d="M1432.4 128.2L1438.8 139.4" stroke="#167256" stroke-width="5" stroke-linecap="round"></path> <path d="M819.602 73.8C821.245 78.1813 831.514 71.8437 834.002 70.6001" stroke="#167256" stroke-width="5" stroke-linecap="round"></path> <path d="M816.398 96.1998L822.798 89.7998" stroke="#167256" stroke-width="5" stroke-linecap="round"></path> <path d="M498 113.8C502.159 113.362 505.63 111.04 509.2 109" stroke="#167256" stroke-width="5" stroke-linecap="round"></path> <path d="M427.602 161.8C430.512 158.773 433.091 155.548 435.602 152.2" stroke="#167256" stroke-width="5" stroke-linecap="round"></path> <path d="M370 157L379.6 147.4" stroke="#167256" stroke-width="5" stroke-linecap="round"></path> <path d="M336.398 157C342.25 154.817 348.118 152.7 353.998 150.6" stroke="#167256" stroke-width="5" stroke-linecap="round"></path> <path d="M877.199 136.2C881.686 136.2 886.237 137.108 889.999 134.6" stroke="#167256" stroke-width="5" stroke-linecap="round"></path> <path d="M912.398 91.4001C915.597 89.5277 918.657 88.0323 921.998 86.6001" stroke="#167256" stroke-width="5" stroke-linecap="round"></path> <path d="M914 70.6001H923.6" stroke="#167256" stroke-width="5" stroke-linecap="round"></path> <path d="M946 117L955.6 118.6" stroke="#167256" stroke-width="5" stroke-linecap="round"></path> <path d="M933.199 161.8C939.069 161.166 944.919 160.653 950.799 160.2" stroke="#167256" stroke-width="5" stroke-linecap="round"></path> <path d="M973.199 112.2C979.467 109.38 984.949 106.11 990.799 102.6" stroke="#167256" stroke-width="5" stroke-linecap="round"></path> <path d="M971.602 73.7998H986.002" stroke="#167256" stroke-width="5" stroke-linecap="round"></path> <path d="M1022.8 102.6H1027.6" stroke="#167256" stroke-width="5" stroke-linecap="round"></path> <path d="M1024.4 128.2L1027.6 131.4" stroke="#167256" stroke-width="5" stroke-linecap="round"></path> <path d="M1024.4 128.2C1029.87 136.994 1034.29 139.903 1042 145.8" stroke="#167256" stroke-width="5" stroke-linecap="round"></path> <path d="M1098 153.8H1117.2" stroke="#167256" stroke-width="5" stroke-linecap="round"></path> <path d="M16.3987 169.8C14.6388 179.303 25.6591 181.007 32.3987 184.2" stroke="#167256" stroke-width="5" stroke-linecap="round"></path> <path d="M58 184.2C64.9787 183.126 71.8987 182.38 78.8 181" stroke="#167256" stroke-width="5" stroke-linecap="round"></path> <path d="M773 112.097C781.638 116.189 794.365 108.472 801.8 105.386C815.86 99.5508 839.266 91.7678 847.044 76.8086C849.823 71.466 845.221 66.9375 840.556 64.7197C833.511 61.3707 827.661 62.8426 821.178 66.4086C813.876 70.4248 808.044 79.1246 809.089 87.7419C810.921 102.86 830.215 96.5338 838.511 92.2752C848.151 87.3268 857.817 81.9171 866.422 75.2975C867.84 74.2068 868.06 71.246 868.644 69.653C870.697 64.055 874.366 58.1501 877.844 53.3419C884.71 43.8511 894.476 39.2975 905.978 39.2975C914.14 39.2975 924.949 36.5982 932.644 38.9864C942.585 42.0712 941.795 49.4699 938.289 57.8308C937.795 59.0095 936.021 61.5443 938.778 60.5419C942.493 59.1909 946.316 57.4358 950.244 59.4752C957.531 63.2588 946.824 72.7375 942.6 73.5197C929.571 75.9323 945.38 62.969 948.556 60.9419C955.89 56.2604 968.467 54.1123 972.911 63.7419C974.457 67.0906 974.668 70.5191 974.6 74.1419C974.58 75.1932 973.061 78.4975 973.978 78.4975C982.828 78.4975 989.146 76.1807 994.867 84.8975C999.116 91.3731 992.049 96.8974 985.8 96.8974" stroke="#D24949" stroke-width="4" stroke-linecap="round"></path> <path d="M661.599 118C651.526 131.297 636.879 141.859 622.799 150.444C614.802 155.321 607.509 157.927 598.577 160.4C592.607 162.053 585.124 164.562 579.199 161.6C570.286 157.144 576.511 149.001 570.799 143.289C569.193 141.682 568.633 139.519 567.199 138C564.308 134.938 561.203 135.6 557.199 135.6C552.855 135.6 535.764 146.051 545.421 149.022C547.617 149.698 547.942 146.255 542.71 147.244C537.628 148.206 527.72 151.408 525.777 157.022C524.922 159.493 530.702 156.975 527.555 154.4C522.927 150.613 508.949 152.369 503.733 153.2C498.259 154.072 488.88 156.316 487.155 162.356C486.886 163.296 481.424 162 480.444 162C475.623 162 471.235 162.678 467.199 165.2" stroke="#D24949" stroke-width="4" stroke-linecap="round"></path> <path fill-rule="evenodd" clip-rule="evenodd" d="M1066.26 81.3227C1070.87 78.1799 1076.14 76.628 1078.04 77.8564C1079.93 79.0848 1077.73 82.6285 1073.12 85.7716C1071.96 86.5628 1070.76 87.2531 1069.58 87.8237C1071.4 89.4654 1072.73 91.2431 1073.46 93.006C1074.56 93.1564 1075.71 93.3387 1076.9 93.5531C1084.92 95.0025 1091.51 97.3676 1091.61 98.8362C1091.72 100.305 1085.31 100.32 1077.29 98.871C1076.06 98.649 1074.86 98.4056 1073.72 98.1473C1073.58 98.5137 1073.41 98.871 1073.19 99.2176C1072.24 100.753 1070.63 101.896 1068.59 102.625C1069.43 103.529 1070.26 104.504 1071.06 105.527C1075.11 110.709 1076.77 115.162 1074.77 115.473C1072.77 115.783 1067.87 111.834 1063.82 106.652C1062.98 105.582 1062.25 104.543 1061.63 103.565C1059.49 103.492 1057.21 103.143 1054.91 102.508C1054.55 103.563 1054.02 104.683 1053.32 105.805C1050.72 110.008 1046.84 112.664 1044.65 111.736C1042.46 110.808 1042.79 106.648 1045.39 102.445C1046.07 101.338 1046.84 100.339 1047.65 99.4837C1045.74 98.3814 1044.1 97.1345 1042.77 95.8163C1041.51 96.022 1040.13 96.1931 1038.65 96.3184C1031.39 96.9364 1024.7 96.2082 1023.72 94.6918C1022.73 93.1754 1027.81 91.4452 1035.08 90.8271C1036.54 90.7028 1037.98 90.633 1039.35 90.6131C1039.01 89.5683 1038.89 88.5357 1039.01 87.5471C1037.79 87.1044 1036.52 86.6099 1035.23 86.0695C1027.61 82.8876 1022.03 79.3192 1022.76 78.0991C1023.49 76.8788 1030.26 78.4693 1037.88 81.6512C1039.16 82.1866 1040.39 82.733 1041.53 83.2773C1043.01 82.1117 1045.04 81.3387 1047.39 80.9773C1046.71 79.7526 1046.07 78.3968 1045.54 76.9755C1043.59 71.6981 1043.82 67.5156 1046.06 67.6329C1048.31 67.7505 1051.72 72.1236 1053.68 77.4011C1054.16 78.7069 1054.51 79.9457 1054.73 81.069C1057.14 81.4441 1059.64 82.1433 1062.09 83.1794C1062.49 83.3508 1062.89 83.5285 1063.28 83.7121C1064.1 82.9189 1065.1 82.1083 1066.26 81.3227ZM1062.04 97.1957C1061.26 96.8084 1060.6 96.6308 1060.11 96.7066C1059.68 96.7734 1059.42 97.0316 1059.31 97.4473C1057.59 97.3901 1055.68 96.975 1053.81 96.1851C1052.14 95.4798 1050.75 94.5715 1049.71 93.5858C1050.13 93.2086 1050.26 92.8248 1050.01 92.4537C1049.75 92.0438 1049.06 91.6915 1048.07 91.4079C1047.83 90.9093 1047.7 90.4136 1047.68 89.9348C1049.14 90.128 1050.1 90.04 1050.35 89.6218C1050.62 89.1753 1050.04 88.4145 1048.83 87.4732C1049.58 86.8646 1050.65 86.4761 1051.9 86.3169C1052.35 86.5751 1052.77 86.723 1053.16 86.7432C1053.63 86.768 1054.01 86.6029 1054.31 86.2778C1055.86 86.4044 1057.54 86.8087 1059.18 87.5025C1059.71 87.7266 1060.21 87.9713 1060.68 88.2324C1060.75 88.6472 1060.96 88.9899 1061.34 89.2382C1061.7 89.4716 1062.19 89.6046 1062.76 89.6454C1063.86 90.5592 1064.63 91.5612 1065.02 92.5426C1063.44 92.6793 1062.53 93.028 1062.57 93.5879C1062.61 94.1053 1063.45 94.7339 1064.88 95.3945L1064.87 95.3974C1064.33 96.2758 1063.32 96.8795 1062.04 97.1957Z" fill="#3333CE"></path> <ellipse rx="10.7777" ry="6.29503" transform="matrix(0.950981 0.309249 -0.300479 0.953788 1056.59 92.1882)" fill="#3897F1"></ellipse> <path d="M310.597 156.758C313.264 156.579 306.453 148.773 307.969 138.271C309.485 127.768 309.102 105.138 296.918 103.621C284.734 102.103 277.864 108.614 274.526 113.233C271.187 117.852 252.958 124.844 252.92 128.878C252.881 132.912 270.343 126.455 270.343 126.455C270.343 126.455 258.426 139.633 261.17 143.157C263.914 146.681 276.808 133.679 282.354 134.676C287.899 135.673 274.697 152.324 280.281 155.012C285.865 157.699 292.216 136.954 297.339 139.389C302.463 141.827 301.061 157.401 310.597 156.758Z" fill="#FF606E" stroke="#3333CE" stroke-width="3" stroke-miterlimit="10" stroke-linecap="round" stroke-linejoin="round"></path> <path d="M300.021 104.913C300.021 104.913 307.386 96.0221 302.201 94.8132C297.015 93.6045 300.021 104.913 300.021 104.913Z" stroke="#040410" stroke-width="3" stroke-miterlimit="10" stroke-linecap="round" stroke-linejoin="round"></path> <path d="M284.768 110.747C286.328 109.659 288.436 109.984 289.476 111.474C290.516 112.964 290.093 115.055 288.533 116.144C286.972 117.233 284.864 116.907 283.824 115.417C282.785 113.927 283.207 111.836 284.768 110.747Z" fill="#040410"></path> <path d="M293.806 114.066C295.991 112.542 298.773 112.756 300.021 114.544C301.268 116.332 300.508 119.018 298.323 120.542C296.139 122.066 293.355 121.852 292.108 120.064C290.86 118.276 291.621 115.591 293.806 114.066Z" fill="#040410"></path> <path d="M1276.4 145.4C1280.63 134.553 1273.19 130.406 1270.35 140.6C1267.38 151.323 1279.68 152.367 1287.07 151.444C1306.16 149.057 1323.02 137.396 1338.09 126.2C1341.49 123.669 1355.74 111.8 1343.69 111.8C1326.66 111.8 1324.84 139.569 1343.69 140.511C1356.59 141.156 1372.13 136.733 1382.8 129.311C1385.75 127.258 1402.77 113.541 1399.24 113.4C1382.91 112.747 1386.2 134.507 1402.8 134.2C1411.13 134.046 1421.34 123.041 1428.04 123.711C1428.52 123.758 1428.66 130.208 1429.11 131C1432.63 137.161 1445.03 137.109 1450.89 137.311C1463.97 137.762 1474.63 134.868 1484.58 143.711C1493.53 151.67 1511.83 148.6 1522.8 148.6C1534.48 148.6 1542.05 156.783 1553.38 159C1559.58 160.214 1580.4 158.904 1580.4 167.8" stroke="#3333CE" stroke-width="3" stroke-linecap="round"></path> <path d="M404.4 127.8C397.216 126.902 389.064 124.393 381.644 128.689C375.671 132.147 375.894 141.122 373.644 146.645C371.837 151.081 362.86 150.833 358.889 150.111C354.22 149.262 356.4 136.127 356.4 132.689C356.4 125.635 340.887 122.846 335.6 125.489C326.75 129.914 329.511 140.6 318 140.6" stroke="#3333CE" stroke-width="3" stroke-linecap="round"></path> <path d="M202.8 145.4C194.22 129.193 172.116 134.484 160.844 145.756C149.496 157.104 140.604 160.864 126.711 148.956C117.773 141.294 117.422 123.542 132.044 123C139.501 122.724 139.327 139.477 133.2 142.2C125.573 145.59 118.236 147 110 147C97.2203 147 85.4856 155.784 75.6889 163.8C70.026 168.433 81.0593 170.424 73.2 160.6C64.9801 150.325 44.0065 161.892 38 169.4" stroke="#3333CE" stroke-width="3" stroke-linecap="round"></path> <path d="M1326.37 130.647C1329.7 127.288 1335.41 127.547 1339.11 131.228C1342.82 134.908 1343.11 140.614 1339.77 143.973C1336.43 147.333 1330.73 147.073 1327.02 143.393C1323.32 139.712 1323.03 134.006 1326.37 130.647Z" fill="white" stroke="#F1CA29" stroke-width="3" stroke-miterlimit="10" stroke-linejoin="round"></path> <path d="M1354.76 145.341C1357.09 143 1361.28 143.391 1364.12 146.214C1366.96 149.037 1367.37 153.224 1365.05 155.564C1362.72 157.906 1358.53 157.515 1355.69 154.691C1352.85 151.869 1352.43 147.683 1354.76 145.341Z" fill="white" stroke="#F1CA29" stroke-width="3" stroke-miterlimit="10" stroke-linejoin="round"></path> <path d="M1333.38 158.318C1335.7 155.976 1339.89 156.368 1342.73 159.191C1345.57 162.014 1345.99 166.2 1343.66 168.542C1341.34 170.883 1337.15 170.492 1334.31 167.669C1331.47 164.845 1331.05 160.659 1333.38 158.318Z" fill="white" stroke="#F1CA29" stroke-width="3" stroke-miterlimit="10" stroke-linejoin="round"></path> <path d="M1310.21 146.899C1312.54 144.558 1316.73 144.949 1319.57 147.772C1322.41 150.595 1322.83 154.782 1320.5 157.123C1318.17 159.464 1313.98 159.073 1311.14 156.25C1308.3 153.426 1307.89 149.24 1310.21 146.899Z" fill="white" stroke="#F1CA29" stroke-width="3" stroke-miterlimit="10" stroke-linejoin="round"></path> <path d="M1344.24 115.79C1346.56 113.449 1350.75 113.84 1353.59 116.663C1356.43 119.486 1356.85 123.672 1354.52 126.013C1352.2 128.354 1348.01 127.963 1345.17 125.141C1342.33 122.317 1341.91 118.131 1344.24 115.79Z" fill="white" stroke="#F1CA29" stroke-width="3" stroke-miterlimit="10" stroke-linejoin="round"></path> <path d="M1343.5 125.727L1337.92 129.84L1343.5 125.727Z" fill="white"></path> <path d="M1343.5 125.727L1337.92 129.84" stroke="#F1CA29" stroke-width="3" stroke-miterlimit="10" stroke-linecap="round" stroke-linejoin="round"></path> <path d="M1342.47 141.538L1352.97 145.983L1342.47 141.538Z" fill="white"></path> <path d="M1342.47 141.538L1352.97 145.983" stroke="#F1CA29" stroke-width="3" stroke-miterlimit="10" stroke-linecap="round" stroke-linejoin="round"></path> <path d="M1336.58 147.465L1338.13 154.891L1336.58 147.465Z" fill="white"></path> <path d="M1336.58 147.465L1338.13 154.891" stroke="#F1CA29" stroke-width="3" stroke-miterlimit="10" stroke-linecap="round" stroke-linejoin="round"></path> <path d="M1326.07 143.207L1320.24 147.626L1326.07 143.207Z" fill="white"></path> <path d="M1326.07 143.207L1320.24 147.626" stroke="#F1CA29" stroke-width="3" stroke-miterlimit="10" stroke-linecap="round" stroke-linejoin="round"></path> <path d="M903 112C894.836 112 885.586 111.965 878 115" stroke="#3333CE" stroke-width="6" stroke-linecap="round"></path> <path d="M848 98C848.225 100.028 849.361 102.082 850 104" stroke="#F1CA29" stroke-width="6" stroke-linecap="round"></path> <path d="M893 151C894.232 156.545 908.263 159.105 913 161" stroke="#F19529" stroke-width="6" stroke-linecap="round"></path> <path d="M1690.8 161.8H1696.4" stroke="#3333CE" stroke-width="6" stroke-linecap="round"></path> <path d="M1410.8 157.8C1409.18 157.98 1407.89 159.908 1406.8 161" stroke="#3333CE" stroke-width="6" stroke-linecap="round"></path> <path d="M223.602 170.2C225.672 171.769 227.103 172.506 227.602 175" stroke="#F19529" stroke-width="6" stroke-linecap="round"></path> <path d="M829.199 168.6C829.199 166.162 832.617 166.782 833.999 165.4" stroke="#F19529" stroke-width="6" stroke-linecap="round"></path> <path d="M172.398 120.6C175.808 118.29 179.118 116.744 182.798 115" stroke="#F19529" stroke-width="6" stroke-linecap="round"></path> <path d="M1064.8 150.4C1067.69 150.04 1071.47 147.983 1074.4 147.2" stroke="#F1CA29" stroke-width="6" stroke-linecap="round"></path> <path d="M576 112C576.565 114.133 577.088 115.851 578.4 117.6" stroke="#F1CA29" stroke-width="6" stroke-linecap="round"></path> <path d="M504.801 103.2V106.4" stroke="#F1CA29" stroke-width="6" stroke-linecap="round"></path> <path d="M684.602 153.8C686.48 154.217 689.948 158.288 691.802 159.4" stroke="#F1CA29" stroke-width="6" stroke-linecap="round"></path> <path d="M351.801 171.4C356.324 170.285 360.862 169.248 365.401 168.2" stroke="#F1CA29" stroke-width="6" stroke-linecap="round"></path> <path d="M666.199 82.6001C667.207 85.0318 668.365 87.3858 669.399 89.8001" stroke="#F1CA29" stroke-width="6" stroke-linecap="round"></path> <path d="M1570.2 144C1572.45 141.998 1574.61 145.615 1575.8 147.2" stroke="#F1CA29" stroke-width="6" stroke-linecap="round"></path> <path d="M1656.6 172C1658.35 171.589 1660.24 171.56 1661.4 170.4" stroke="#F1CA29" stroke-width="6" stroke-linecap="round"></path> <path d="M1439 148.8C1440.44 148.979 1441.4 151.528 1441.4 152.8" stroke="#F1CA29" stroke-width="6" stroke-linecap="round"></path> <path d="M590.924 106.041C597.82 104.415 605.242 103.84 610.035 100.678C617.273 103.198 624.56 105.213 631.859 106.961C633.113 105.641 634.227 104.26 635.225 102.816C627.419 100.801 619.649 98.547 611.994 95.92C611.48 92.2026 609.512 87.5578 607.424 82.6402C604.812 76.5162 601.857 69.5792 602.714 65.9352C602.977 64.8145 602.276 63.6831 601.146 63.4177C600.016 63.1522 598.891 63.8648 598.629 64.9855C597.469 69.9674 600.576 77.2485 603.567 84.2787C605.056 87.7815 606.583 91.3679 607.385 94.2832C585.937 86.4748 568.863 77.1108 555.589 65.8639C554.634 59.904 554.536 52.7823 554.461 46.4255C554.424 43.4133 554.383 40.5248 554.266 37.8742C554.264 37.8427 554.268 37.7918 554.266 37.7602C554.228 36.9706 554.185 36.2002 554.131 35.4683C554.054 34.3354 553.065 33.4553 551.923 33.5292C550.78 33.6031 549.896 34.5701 549.951 35.7072C549.984 36.4749 550.037 37.248 550.09 38.0211C550.215 40.6112 550.249 43.4874 550.276 46.4969C550.33 51.373 550.413 56.6624 550.865 61.6397C549.703 60.5242 548.551 59.4113 547.448 58.2708C540.064 50.6096 535.606 37.7454 536.582 26.9786C536.78 24.8321 537.328 22.4725 538.098 20.2478C539.79 20.4736 541.548 20.2815 543.199 19.6544C543.802 19.4291 544.238 18.9491 544.436 18.3919C544.595 17.9379 544.599 17.4406 544.414 16.9524C544.001 15.8705 542.794 15.3239 541.712 15.7368C541.119 15.9648 540.501 16.0926 539.886 16.138C540.145 15.6602 540.41 15.1947 540.694 14.7758C541.549 13.4683 543.748 12.0393 545.503 10.8912C547.627 9.50368 549.165 8.50214 549.784 7.14903C550.246 6.09472 549.797 4.84679 548.733 4.38189C547.698 3.92509 546.487 4.35371 545.985 5.36562C545.66 5.78331 544.196 6.74331 543.217 7.38241C541.018 8.81143 538.526 10.4382 537.184 12.4814C536.933 12.8576 536.708 13.2515 536.478 13.6646C536.295 13.1668 536.11 12.6787 535.925 12.1905C535.486 11.0181 535.062 9.90189 534.77 8.83318C534.46 7.71785 533.314 7.06376 532.189 7.3711C531.074 7.68115 530.42 8.827 530.727 9.95196C531.079 11.2141 531.55 12.4578 532.001 13.6645C532.545 15.0947 533.049 16.4413 533.363 17.7654C533.38 18.1129 533.5 18.4997 533.734 18.8873C533.812 19.0133 533.909 19.1132 534.006 19.213C533.186 21.6522 532.612 24.2125 532.388 26.6009C531.295 38.4877 536.246 52.7053 544.409 61.1775C546.638 63.486 549.02 65.7333 551.505 67.906C550.074 68.0444 548.648 68.2048 547.262 68.3663C544.032 68.7369 540.981 69.0957 537.686 69.1053C536.42 69.1028 534.628 68.9737 532.725 68.834C527.066 68.419 520.645 67.9457 517.48 69.8613C516.492 70.4564 516.171 71.7477 516.776 72.7381C517.38 73.7285 518.662 74.0468 519.659 73.4543C521.687 72.2266 528.159 72.7038 532.432 73.0208C534.408 73.1601 536.28 73.3012 537.704 73.2961C541.227 73.2882 544.546 72.9007 547.757 72.5248C549.101 72.362 550.464 72.2047 551.841 72.072C547.892 76.0736 534.097 80.1876 529.041 81.697C526.99 82.3053 525.389 82.7906 524.337 83.1705C523.248 83.571 522.695 84.7659 523.093 85.8643C523.493 86.9531 524.698 87.5094 525.786 87.1089C526.713 86.7667 528.355 86.2825 530.25 85.7134C542.425 82.0794 554.363 79.9574 556.74 74.0812C569.464 84.0311 585.189 90.5442 604.455 97.6881C600.412 99.5129 595.118 100.758 589.966 101.981C583.426 103.521 576.681 105.127 572.091 107.972C571.107 108.589 570.808 109.876 571.425 110.86C572.042 111.843 573.329 112.142 574.313 111.525C578.306 109.032 584.735 107.513 590.94 106.056L590.924 106.041Z" fill="#3F4140"></path> <path d="M546 51L541.981 40.2388L531.15 45.1425L536.299 34.8264L525 31L536.299 27.1735L531.15 16.8575L541.981 21.7612L546 11L550.018 21.7612L560.85 16.8575L555.701 27.1735L567 31L555.701 34.8264L560.85 45.1425L550.018 40.2388L546 51Z" fill="white" stroke="#FF606E" stroke-width="3" stroke-miterlimit="10" stroke-linecap="round" stroke-linejoin="round"></path> </svg> 